<svg width="24" height="33" fill="none" xmlns="http://www.w3.org/2000/svg"><path d="M12 0C5.383 0 0 5.383 0 12c0 2.178.977 4.521 1.018 4.62.315.749.938 1.912 1.387 2.594l8.228 12.467c.336.51.835.804 1.367.804s1.03-.293 1.367-.804l8.229-12.467a19.277 19.277 0 001.387-2.594C23.023 16.522 24 14.18 24 12c0-6.617-5.383-12-12-12zm9.681 16.072a17.727 17.727 0 01-1.264 2.365l-8.229 12.467c-.162.247-.213.247-.376 0L3.584 18.437A17.735 17.735 0 012.32 16.07c-.012-.028-.908-2.185-.908-4.071C1.412 6.162 6.162 1.412 12 1.412c5.838 0 10.588 4.75 10.588 10.588 0 1.889-.898 4.051-.907 4.072z" fill="#000"/><path d="M12 5.648A6.36 6.36 0 005.647 12 6.36 6.36 0 0012 18.354 6.36 6.36 0 0018.353 12 6.36 6.36 0 0012 5.648zm0 11.294A4.947 4.947 0 017.059 12a4.947 4.947 0 014.94-4.941A4.947 4.947 0 0116.942 12 4.947 4.947 0 0112 16.943z" fill="#000"/></svg>