<svg width="23" height="23" xmlns="http://www.w3.org/2000/svg"><path d="M21.463 16.589l-3.194-3.196a2.276 2.276 0 00-1.617-.662c-.64 0-1.242.252-1.698.708l-1.244 1.243c-.966-.537-2.25-1.275-3.583-2.609-1.332-1.332-2.07-2.612-2.61-3.583l1.244-1.244c.926-.927.945-2.415.043-3.316L5.61.737A2.266 2.266 0 003.993.072 2.39 2.39 0 002.324.75C2.05.97.674 2.186.161 4.69c-.718 3.507.932 6.882 5.695 11.648 5.322 5.32 9.865 5.733 11.13 5.733.264 0 .423-.017.465-.021 2.482-.291 3.37-1.393 4.02-2.198.84-1.043.837-2.416-.008-3.264zm-1.06 2.403c-.61.756-1.186 1.47-3.111 1.697-.001 0-.107.011-.306.011-1.132 0-5.211-.384-10.16-5.331C2.433 10.974.891 7.96 1.504 4.966c.448-2.185 1.635-3.114 1.682-3.15l.04-.03.036-.036a1.03 1.03 0 01.73-.307c.25 0 .479.093.648.263L7.834 4.9c.368.367.348.985-.043 1.377L6.384 7.683l-.023.024c-.367.404-.324.95-.122 1.306.583 1.052 1.382 2.493 2.918 4.03 1.532 1.531 2.97 2.33 4.02 2.911.104.06.321.158.593.158.32 0 .615-.136.832-.383l1.321-1.32c.197-.198.456-.306.728-.306.25 0 .48.093.649.261l3.192 3.193c.405.407.238 1.03-.09 1.435zm-7.015-15.56c1.178.135 2.566.849 3.534 1.818.978.977 1.693 2.379 1.822 3.57a.686.686 0 101.364-.148c-.164-1.506-1.013-3.189-2.216-4.392-1.192-1.192-2.858-2.04-4.347-2.21a.686.686 0 10-.157 1.362zm-.64 2.872c.637.073 1.519.546 2.096 1.123.583.583 1.056 1.473 1.126 2.117a.686.686 0 101.363-.147c-.119-1.1-.849-2.269-1.52-2.94-.664-.664-1.821-1.39-2.909-1.516a.685.685 0 10-.156 1.363z"/></svg>