<svg width="80" height="27" fill="none" xmlns="http://www.w3.org/2000/svg"><path d="M30.72 22.851c-2.976-1.918-7.016-2.254-13.531-.447-6.946 1.633-9.262 2.679-12.303.579-1.168-1.032-1.587-2.694-1.274-5.087.725-3.9 2.686-7.655 6.168-11.819 1.944-2.166 3.747-4.025 6.128-4.772 1.825-.468 1.654.966 1.434 1.171-.233 0-.625.037-.927.234-.246.19-.92.806-.956 1.633-.052 1.266 1.258 1.002 1.823.307.61-.783 1.51-2.283.801-3.681-.296-.498-.81-.842-1.446-.959-2.18-.124-4.21.915-6.085 2.064-4.098 2.847-7.376 6.792-9.231 11.11C.25 15.789-.716 19.52.734 22.558c1.122 2.108 3.45 3.227 6.228 2.993 1.948-.204 4.304-.834 5.889-1.214 1.584-.381 9.695-3.17 12.36 1.683 0 0 .886-1.72 3.1-1.757 1.822-.168 4.448.527 6.361 1.932-.637-.958-2.444-2.37-3.951-3.344z" fill="#E61A27"/><path d="M18.016 6.567c-1.517-.995-4.566.908-7.008 4.172-2.233 2.928-3.198 6.33-2.148 7.904 1.56 1.851 4.459-.842 5.691-2.283l.16-.169c.837-.9 1.485-1.983 2.112-3.023l.603-.995c.356-.066.785-.168 1.268-.307-.007.022-1.849 3.117-1.66 4.654.058.469.013 2.181 1.685 2.7 2.229.374 4.008-1.353 5.578-2.89l.418-.402-.088.358c-.652 2.268.227 2.745.777 2.92 1.663.484 3.649-1.932 3.655-1.932-.051.761-.202 1.39.6 1.895.757.271 1.523-.142 2.106-.53 2.097-1.478 3.787-3.792 5.152-5.791h-.87c-.011 0-2.149 3.098-3.537 3.772-.002 0-.255.13-.4.027-.18-.154-.11-.473.002-.7.006-.015 5.36-9.3 5.36-9.3h-2.528s-.276.447-.298.476c-.017-.014-.058-.091-.086-.128-1.566-2.166-5.112 1.166-7.782 5.03-1.028 1.486-2.337 3.159-3.694 4.366 0 0-2.01 1.843-2.869.52-.314-.557-.217-1.37-.04-1.905 1-2.847 2.723-5.43 4.684-6.99.554-.43 1.156-.556 1.454-.373.285.17.33.586.15.871-.456-.014-.822.125-1.12.432-.585.615-.79 1.208-.603 1.764.905 1.288 2.71-1.259 2.623-2.81-.031-.557-.328-1.084-.77-1.34-.66-.395-1.668-.293-2.32.022-.872.33-2.253 1.478-3.06 2.371-1.014 1.12-2.754 2.364-3.299 2.225.178-.476 1.648-3.484.102-4.61zm12.186 4.45c.492-.68 1.923-2.503 2.272-2.81 1.173-1.032 1.642-.578 1.683-.256a231.413 231.413 0 01-3.603 6.228c.002-.007-.38.578-.38.578-.537.82-1.078 1.522-1.959 2.012-.126.037-.333.052-.47-.051a.499.499 0 01-.214-.483c.053-.63.694-2.554 2.671-5.218zm-13.75 1.178s-.023.066-.033.088c-.003 0-1.103 1.793-1.103 1.793-.663.885-1.491 1.998-2.527 2.532-.306.103-.73.169-.947-.102-.458-.549-.222-1.31-.03-1.925l.068-.22c.55-1.492 1.423-2.81 2.273-4.032a.112.112 0 01.043-.014c.002.007.005.007.007.022.533 1.024 1.533 1.5 2.28 1.72.005 0 .01.007.01.021a.36.36 0 01-.041.117zm1.04-2.114c-.004.014-.489 1.127-.489 1.127-.07.058-.18.029-.308 0l-.217-.037c-.684-.212-1.199-.666-1.358-1.208-.219-1.054.681-1.88 1.078-2.18.38-.264.972-.403 1.316-.132.212.249.292.57.292.922 0 .475-.147 1.01-.313 1.508zm31.955 3.395c-.244-.527-.822-.864-1.439-.827-2.002.183-3.96 1.83-4.99 4.193-.539 1.215-.833 2.218-1.026 3.813.622-.717 1.892-1.895 3.334-2.539 0 0 .196-1.53 1.196-2.89.378-.565 1.135-1.472 1.986-1.23.742.248.481 2.305-.506 4.295-.73 1.464-1.849 2.928-2.98 3.938-1 .849-2.48 1.873-3.774 1.083-.816-.483-1.232-1.493-1.144-2.796.39-3.695 2.072-6.842 4.48-10.428 2.482-3.33 5.218-6.748 8.905-8.57.752-.381 1.448-.469 2.05-.235 0 0-3.46 1.903-5.11 5.423-.42.893-1.003 2.1-.416 3.17.308.555.853.6 1.292.57 2.022-.468 3.328-2.357 4.395-4.084.62-1.31 1.17-2.612 1.17-4.061 0-.176-.01-.41-.025-.586.966-.512 2.947.395 2.947.395 1.548.513 4.844 3.038 5.956 3.52a35.053 35.053 0 011.935-2.056l-.726-.446c-1.163-.71-2.393-1.384-3.603-2.05-2.748-1.5-4.984-.973-6.123-.563-.447.161-.856.3-.856.3-.845-.922-2.23-.834-3.251-.585-3.672 1.053-7.08 3.622-10.735 8.08-2.687 3.49-4.353 6.506-5.241 9.484-.685 2.005-.893 4.955.778 6.704 1.42 1.485 3.305 1.163 4.635.63 2.883-1.42 5.474-4.48 6.765-8 .312-1.047.657-2.525.12-3.652zm6.629-11.029c-.382 4.377-3.784 6.946-4.626 7.15-.51.103-1.38-.124-.603-1.96 1.144-2.475 3.098-4.575 5.194-5.65.05.182.05.299.035.46zm20.18.556c-1.83 1.04-3.728 1.713-6.024 1.479a35.275 35.275 0 00-1.827 2.217c3.223.82 6.64-1.003 8.545-2.737C78.966 2.213 80 .01 80 .01s-1.511 1.727-3.745 2.993zM41.672 6.648h-2.4l-1.355 2.2h2.4l1.355-2.2z" fill="#E61A27"/><path d="M70.223 23.055c-.258.175-.621.04-.486-.362.338-1.025 1.68-3.113 1.68-3.113l3.74-6.632h-2.561c-.122.2-.382.659-.382.659-.119-.197-.473-.636-.619-.731-.626-.396-1.544-.209-2.177.15-2.754 1.61-4.763 4.791-6.348 7.273 0 0-1.668 2.758-2.594 2.963-.723.058-.648-.916-.617-1.142.28-1.64.928-3.199 1.582-4.611a35.414 35.414 0 004.228-3.454c2.994-2.862 5.518-6.104 5.886-6.829 0 0-.399.08-.87.095-2.303 3.213-7.017 7.883-8.446 8.578.634-1.523 4.723-8.79 8.203-12.266l.548-.527c.847-.827 1.724-1.676 2.408-1.815.072-.008.165 0 .246.168.03.644-.21 1.12-.485 1.661l-.385.791s.546-.103.905-.22c.415-.783.876-1.661.706-2.707a.777.777 0 00-.619-.652c-1.038-.197-2.17.57-3.08 1.193l-.036.022c-4.68 3.666-8.632 8.95-12.087 16.167-.25.19-1.218.417-1.383.307.342-.703.771-1.647.986-2.671a7.15 7.15 0 00.072-.886c0-.63-.151-1.222-.716-1.632-.661-.33-1.479-.176-2.03.073-2.47 1.025-4.316 3.557-5.648 5.643-.716 1.325-1.43 2.744-1.629 4.369-.139 1.273.145 2.093.869 2.502.744.38 1.681-.015 2.05-.205 2.501-1.317 4.25-3.959 5.628-6.374.054-.007.807-.029 1.376-.176.008 0 .01 0 .023.008-.032.11-.326.988-.326.988-.874 2.561-1.278 4.303-.453 5.335 1.18 1.456 3.131-.051 4.719-2.042-.341 2.386.895 2.76 1.838 2.576 1.083-.292 2.29-1.449 2.849-2.041-.18.695-.131 1.939.854 2.063.675.125 1.18-.242 1.765-.557 2.097-1.142 4.607-4.947 5.258-6.046h-.854c-.927 1.4-2.106 3.235-3.588 4.107zM51.4 22.8a1.153 1.153 0 01-.182-.647c-.025-1.435 1.519-4.005 2.609-5.405h.002c.457 1 1.49 1.642 2.115 1.913-.775 1.728-3.434 5.427-4.544 4.139zm4.982-4.91c-.074.05-1.378-.389-1.63-1.596-.214-1.04.502-1.852 1.194-2.261.298-.235.746-.315 1.074-.198.305.205.388.571.388.966 0 .242-.032.49-.06.717l-.007.051a9.756 9.756 0 01-.96 2.32zm10.46 4.449c-.002 0-.248.22-.248.22-.352.314-.714.65-1.15.482-.122-.044-.206-.204-.227-.33-.02-.9.385-1.734.779-2.546l.1-.212c1.131-1.888 2.446-4.113 4.376-5.657.325-.235.678-.432 1.05-.278.087.08.186.22.186.358a.624.624 0 01-.061.198c-.54.871-1.053 1.786-1.552 2.664-.976 1.734-1.988 3.527-3.254 5.1z" fill="#E61A27"/></svg>