<svg width="80" height="58" fill="none" xmlns="http://www.w3.org/2000/svg"><path d="M71.878 15.605a1.224 1.224 0 10-.002-2.449 1.224 1.224 0 00.002 2.45z" fill="#7B002B"/><path d="M72.865 13.931a1.086 1.086 0 01-.733 1.506 1.082 1.082 0 01-1.176-1.62c.111-.183.274-.328.468-.418a1.09 1.09 0 011.441.533z" fill="#fff"/><path d="M46.7 32.835v.323l-5.423 2.557v-.43s.734-.708.734-2.667V20.39s-.236-1.588-1.028-1.933v-.347l3.195-1.375c.313-.135 1.053-.71 1.248-1.03h.286v1.088c1.053-1.646 2.455-2.651 4.149-2.77 2.664-.195 3.339 2.879 3.255 5.016-.135 3.647-2.421 7.76-6.072 8.477-.421.084-.886-.007-1.332-.152v3.681c.002.002-.05 1.336.988 1.79z" fill="#7B002B"/><path d="M34.659 38.333v.33l-5.414 2.558v-.43s.726-.71.726-2.668V25.897s-.237-1.59-1.03-1.935v-.345l3.205-1.377c.313-.133 1.053-.71 1.248-1.038h.28V22.3c1.06-1.648 2.452-2.651 4.148-2.777 2.664-.188 3.33 2.878 3.254 5.023-.135 3.638-2.411 7.753-6.061 8.47-.43.084-.894 0-1.34-.153v3.691c-.002-.004-.045 1.33.984 1.779zm29.806-24.857l-6.67 3.25s-.051 2.33 2.04 2.33 4.654-3.3 4.654-3.3l.236.127-.809 3.14s-3.584 3.513-6.796 3.513c-3.221 0-3.322-4.561-3.322-4.561s-.21-5.124 4.755-8.166c4.968-2.987 6.174 1.758 5.912 3.667z" fill="#7B002B"/><path d="M28.925 29.72l-6.67 3.25s-.051 2.33 2.04 2.33 4.654-3.3 4.654-3.3l.236.135-.809 3.14s-3.585 3.505-6.806 3.505c-3.211 0-3.322-4.55-3.322-4.55s-.202-5.133 4.763-8.165c4.97-2.98 6.175 1.748 5.914 3.657z" fill="#7B002B"/><path d="M18.823 40.012v.313l-8.49 3.909v-.362s1.171-1.3 1.171-3.445v-17.15s.085-3.31-1.635-3.968v-.285l9.275-4.273c5.218-2.416 6.787.059 6.998 2.498.27 3.049-.994 6.61-3.878 8.327-1.407.835-2.843 1.62-4.3 2.229v-.514c1.982-1.537 3.145-4.137 3.078-6.695-.034-1.124-1.137-2.6-2.58-1.884l-1.872.939v16.793c0-.002-.053 4.118 2.233 3.568zm51.183-23.54v.236L64.795 19.2v-.422s.59-.794.59-2.306V9.068s-.118-1.047-1.012-1.62l3.684-1.697s.641-.355.928-.777l.195.203v1.097s1.255-2.61 3.078-2.61v3.2s-2.233.388-3.061 2.407v5.724s0 .99.809 1.477zm-22.244-3.664v.236l-5.21 2.492v-.422s.59-.794.59-2.306V5.404s-.119-1.047-1.005-1.621l3.676-1.697s.641-.352.928-.776l.202.202V2.61S48.2 0 50.02 0v3.2s-2.243.387-3.06 2.406v5.725c.002 0 .002.987.802 1.477zM34.22 19.369l-7.124 3.36v-.438s.901-.71.901-3.209V6.772s-.125-1.69-1.221-1.57v-.288l7.319-3.36c3.163-1.453 7.8-.49 7.8 4.364v1.807c-.002 5.32-3.476 9.66-7.675 11.644zM11.193 54.63s-.582.16-.708.352c-.127.195-.354.162-.64.195-.287.036-.287.447-.675.447-.38 0-.769.103-.86.424-.102.32-.514.608-.937.666-.413.068-.894-.058-.379-.38.515-.323.058-.549.058-.71 0-.16.068-.574.32-.674.263-.093.836-.641.836-.641s.195-.287-.125-.321c-.32-.034-.547-.092-.641.127-.092.228-.64 1.19-.64 1.19s-.71-.092-.835.355c-.125.446-.481.835-.64.895-.16.067-.355-.16-.608.035-.253.196-.32-.38-.573-.06-.262.321-.836.287-.836.287s.253-.902-.067-.583c-.32.32-.928.803-1.35.777-.413-.034-.64.026-.8.22-.159.192-.7.033-.7.033l-.39-.389s.48-.32.64-.574c.162-.253.482-.767.642-1.054.159-.295.125-.616.446-.71.32-.1.388-.388.388-.675 0-.285-.48-.253-.641-.067 0 0 0-.381.286-.642a36.523 36.523 0 001.316-1.25c.253-.253.354-.253.354.036 0 .285.058.835.354.835.287 0 .607-.263.675-.55.06-.285.64-.927.38-1.122-.253-.195-.573-.127-.7.126-.136.26-.514.133-.196-.22.32-.354.608-.87.735-1.124.125-.262.388-.514.927-.641.55-.135 2.792-.71 3.433-1.064.641-.353 2.183-1.317 3.431-1.696 1.248-.389.961-.55 1.855-.642.902-.101 1.67-.642 2.15-.964.48-.321.893-.674.893-.321v.06s.229-.381.868-.803c.64-.415 1.568-.608 2.115-.608.547 0 .675-.094.868-.287.185-.195.508-.353.64-.066.126.285.608.066.827-.094.229-.161.388-.388.195-.583-.195-.186-.414-.608-.195-.702.229-.101.49-.101.49.161 0 .254.187.736.38.7.194-.024.159-.927.547-.7.38.22.927-.101 1.5-.287.583-.195 1.063-.835 1.097-.352.024.48.573-.136.835-.297.253-.16.574-1.02 1.087-.77.514.263.514.355.195.609-.32.262-.354.675-.32 1.097.026.415.159.38.64.195.482-.195 3.525-1.476 3.812-1.638.287-.16 2.243-1.123 2.243-1.123s.286-.102.159-.389c-.126-.287-.092-.673-.388-.71-.287-.025-.766-.607-.48-1.123.295-.514.456-.861.456-.22 0 .644.219.736.48.449.252-.287.414-.355.54-.094.125.253.286.058.48-.101.196-.162.48-.06.642.126.159.195.294-.059.354-.321.067-.256.26-1.286.927-1.158.675.135 1.407.135 1.407-.126 0-.253-.16-.48.092-.48.253 0 .48.227.414.767l.48-.026v.929l6.19-2.794s.606-.126.447-.803c-.16-.677-.06-.514-.32-.54-.253-.034-.574-.548-.347-.835.22-.295.38-.871.506-.456.135.422.354.972.354.972s.262.414.448-.295c.195-.702.352-1.054.708-1.317.352-.253.894-.447 1.029-.642.125-.188.219-.482.54-.347.32.126.159.285-.126.48-.287.188-.768.644-.482.862.287.229.414.262.547.103.128-.162.287-.23.287.16 0 .38-.034.86.354.86.379 0 .574-.285.675-.673.092-.381.06-.77.448-.415.378.353.32-.094.32-.094s.058-.388.514-.294c.445.101 1.247-.026 1.534-.253.287-.23 1.383-.997 1.383-.997s.448-.354.607.16c0 0 .195-.321.38-.321.195 0 0-.801.297-.253.286.54 1.373-.871 2.917-1.064 0 0 .414-.22.573.067.16.287.355-.48.834-.32.48.16.516-.353.995-.38.482-.035 1.602-.093 1.602-.641 0-.54-.067-.736-.296-.77-.219-.033-.159-.285.195-.412.354-.136.388.666.514 1.122.127.448.286.127.515-.102.227-.22 1.407-1.088 1.855-.962.455.125.8.034.937.48.125.448.32 0 .32-.218 0-.229-.135-1.285.446-1.512.574-.229.735-.195.995.034.253.22.38-.034.54.54.16.584.513.321.802.162.294-.162 1.221-1.023 1.795-1.023.583 0 .421-.263.421-.263s0-.446.48.036c.482.48.287.263.735.034.448-.227.901-.803.995-.227.091.583.414.352.64-.026.23-.389.23-.972.894-1.192.675-.227 1.51-.514 1.636-.743.135-.22.262-.347.514-.347.262 0 .547-.068.547-.32 0-.264.06-.618.286-.136.227.482.574 1.223-.387 1.58a5.943 5.943 0 01-2.05.379c-.32 0-.641-.094-.446.354l.446 1.03s-.868-.067-.995.286c-.128.354-.608 1.157-.641 1.698-.034.548-.379.066-.379-.128 0-.193-.421-1.02-.742-1.283-.32-.254-.412-.254-.513.034-.092.287-.574-.068-.641.287-.058.354-.32.482-.64.482-.321 0-.928.447-.381.674.54.228 1.053.414 1.053.414s.64.23-.195.355c-.836.125-1.821.195-2.21.125-.387-.058-1.028-.125-1.028.415 0 .548-.125.736-.482.929-.344.195-.573.48-.573.48s-.768-.446-1.122-.54c-.354-.101-.514.094-.547.415-.034.32.033.55-.287.641-.32.094-1.19.255-1.602.482-.414.228-.995.355-1.156.768 0 0-.574-.22-.894.161-.32.389-1.602 1.098-2.436 1.098-.834 0-2.79.803-3.433 1.214l-.195-.285s-1.956.895-1.956 1.155c0 0-.734-.135-1.407.254-.675.388-.735.482-.482 1.352 0 0-1.212-.16-1.508.093-.287.253-1.18.735-1.248 1.157-.06.413-.448.066-.48-.161-.035-.227.034-.422.422-.548.38-.128.185-.516-.101-.516-.287 0-1.41.32-1.636.516-.22.195-.735.388-.834.127-.094-.255-.508-.127-.665.196-.161.32-.708.641-.135.835.583.195 1.35.352 1.51.227.16-.126.641-.997.641-.642s-.16.861-.513 1.088c-.354.23-.482-.253-1.342-.16 0 0-.294.353-.294.642 0 0-.641.389-.802.575-.16.195-.641-.218-.894-.286-.262-.06-.708-.195-.961.068-.263.253.06.54-.263.673-.32.126-.7.736-1.407.77-.7.034-2.243.48-2.47.606-.219.127-.665.287-.665-.254 0-.547-.421-.388-.481-.033-.068.353-.034 1.03-.574 1.283-.54.253-1.088.126-1.341.287-.26.16-1.67 1.19-1.99 1.351-.32.161-3.845 1.959-9.555 4.263l-.32-.32c.058.087-7.05 4.461-14.318 7.29z" fill="#7B002B"/><path d="M33.673 25.195v5.7c.311.049.631.085.935 0 1.518-.398 2.192-1.992 2.192-3.548v-2.482c0-.989-.64-1.638-1.34-1.63-.946.018-1.425.93-1.787 1.96zM25.09 29.13l-2.86 1.409c.078-.878.659-1.96 1.492-2.374.499-.242 1.333-.319 1.368.965zm7.293-11.881V5.666c4.358-3.606 5.067 1.75 5.009 3.86-.075 3.072-1.18 6.727-5.009 7.723zm28.247-4.364l-2.85 1.409c.068-.878.65-1.967 1.492-2.372.498-.253 1.332-.328 1.358.963zm-14.915 6.812v5.7c.313.059.624.085.928.008 1.517-.405 2.2-2 2.2-3.555v-2.48c0-.997-.642-1.648-1.34-1.639-.945.017-1.436.936-1.788 1.966z" fill="#fff"/><path d="M71.726 15.155l.16-.075-.244-.524.404-.185c.253-.119.287.142.379.277l.094.143.195-.092c-.12-.075-.111-.109-.195-.26-.118-.204-.128-.23-.296-.247.084-.152.1-.227.024-.379-.142-.277-.345-.229-.53-.144l-.547.253.556 1.233z" fill="#7B002B"/><path d="M71.786 13.813c.092-.041.253-.094.328.133.06.162-.034.237-.144.288l-.388.18-.195-.424.399-.177z" fill="#fff"/><defs><clipPath id="clip0_81:70"><path fill="#fff" d="M0 0h80v57.325H0z"/></clipPath></defs></svg>