<svg width="80" height="59" fill="none" xmlns="http://www.w3.org/2000/svg"><path d="M34.438 58.701c16.159 0 29.258-13.14 29.258-29.35S50.596 0 34.438 0C18.279 0 5.18 13.14 5.18 29.35s13.1 29.351 29.258 29.351z" fill="#F4991D"/><path d="M0 16.311l16.069-1.682s-5.753-4.665-6.376-6.83c0 0-.24-1.2 1.677-1.83 1.918-.63 10.07-3.848 10.07-3.848s11.752-3.656 17.265 10.683l9.83-1.54v1.54L65.8 12.32l.623 6.013h4.316l5.18 17.944L53.38 53.84s-5.18 4.472-16.544 4.713L3.89 45.421 0 16.31z" fill="#2F358C"/><path d="M11.703 7.893s6.573-2.5 7.098-3.031c.573-.576 8.392-3.514 13.812 1.2 0 0 3.836 3.754 5.038 8.276l2.3 4.714 1.196 2.214s.334.817 0 .965c-.333.148-2.78-3.755-2.78-3.755l-1.104-1.59s-.962-1.249-3.743-.673c-2.781.575-7.048 1.058-10.119.531-3.016-.58-10.119-6.643-11.698-8.851z" fill="#75B947"/><path d="M24.172 16.695c-3.071-.532-10.168-6.593-11.753-8.802 0 0 6.573-2.5 7.097-3.031.29-.29 2.83-1.349 5.994-1.442-3.453-.098-6.376 1.107-6.715 1.442-.568.575-7.092 3.03-7.092 3.03 1.585 2.264 8.682 8.326 11.753 8.803 1.054.192 2.207.241 3.404.241-.962-.049-1.874-.098-2.688-.24z" fill="#609744"/><path d="M17.457 9.575s3.021-1.49 4.65 0c3.212 2.933 10.167 4.473 11.511 4.188 0 0-6.955 1.59-8.966.482-2.639-1.447-4.223-3.42-7.195-4.67z" fill="#609744"/><path d="M2.448 18.476L6.19 44.215l5.513-.384-.863-11.066 5.513-.482-.721-4.812-5.513.723-.48-4.664 6.714-1.2-.962-6.161-12.943 2.307zm28.679 2.165l2.639 21.025 5.13-.575-.72-10.584 8.391 9.718 3.983-.482-3.12-25.498-5.66.625 1.197 10.682-6.568-6.018-5.272 1.107z" fill="#fff"/><path d="M36.4 20.017l6.572 6.012-.049-.532-6.524-5.963-5.278 1.107.05.433 5.228-1.057zm11.03-5.295l3.071 25.02h.05l-3.12-25.497-5.66.625.098.482 5.562-.63zm-9.255 16.262l.721 10.101-.672-10.101h-.049z" fill="#CDCBE6"/><path d="M48.873 15.204l.716 5.678 3.355.1 1.535 17.703 6.376-.143-.623-18.043 4.459-.334-.864-6.161-14.954 1.2z" fill="#fff"/><path d="M49.447 15.78l4.557-.625 9.829-1.156-14.965 1.2.72 5.684h.482l-.623-5.103zm4.076 5.777l-.53-.05 1.486 17.178.53-.05-1.486-17.078z" fill="#CDCBE6"/><path d="M24.51 19.293l-5.42.625-2.3 23.48 4.317-.24 1.103-6.255 3.12-.383 2.535 5.771 4.557-.625-7.912-22.373zm-2.398 13.615l.623-4.09h.961l1.437 3.755-3.021.335z" fill="#fff"/><path d="M19.232 20.11l5.322-.768-.05-.049-5.37.625-2.3 23.43.961-.048 1.437-23.19zm9.496 22.033l-2.688-5.678-.623.098 2.448 5.728 4.557-.625v-.142l-3.694.62z" fill="#CDCBE6"/><path d="M69.734 20.882l-7.196 1.107.24 16.021 3.836-.383.24-4.09 2.159-.24 1.677 3.365 4.076-.142-5.032-15.638zm-1.727 9.236c-1.344.098-1.677-.674-1.918-1.442l3.12-.334c0-.006.142 1.677-1.202 1.776z" fill="#fff"/><path d="M63.5 22.324l6.474-.723-.24-.768-7.196 1.107.24 15.972h.334l.388-15.588zm6.376 6.687l-.765.05c-.098.482-.383 1.008-1.153 1.057-.382.05-.721-.05-.962-.142.24.433.672.767 1.585.767 1.344-.05 1.295-1.732 1.295-1.732zm-.383 4.862l-.142.049 1.344 2.696h.05l-1.252-2.745z" fill="#C6C3E1"/><path d="M3.644 27.186l2.688 17.029 1.104-.099-3.12-16.454-.672-.476z" fill="#CDCBE6"/><path d="M77.552 34.398l-.431.1-.05-.143 1.006-.192.05.142-.432.099.19 1.25-.19.049-.143-1.305zm2.159.291c-.05-.192-.099-.433-.142-.575 0 .191-.05.334-.099.575l-.142.723h-.142l-.333-.624c-.099-.192-.191-.335-.24-.532.049.192.049.384.098.625l.049.575-.191.05-.142-1.398.24-.05.333.626c.099.142.142.29.24.433 0-.143.05-.291.05-.483l.142-.723.24-.05.334 1.349-.192.049-.103-.57z" fill="#2F358C"/><defs><clipPath id="clip0_81:54"><path fill="#fff" d="M0 0h80v58.696H0z"/></clipPath></defs></svg>