<svg width="80" height="31" fill="none" xmlns="http://www.w3.org/2000/svg"><path d="M15.226 30.337C6.906 30.337.139 23.564.139 15.24.139 6.914 6.907.14 15.226.14c8.318 0 15.086 6.774 15.086 15.1 0 8.325-6.768 15.098-15.086 15.098z" fill="#fff"/><path d="M15.226.278c8.255 0 14.948 6.698 14.948 14.96 0 8.263-6.693 14.96-14.948 14.96-8.256 0-14.949-6.697-14.949-14.96C.277 6.976 6.97.278 15.226.278zm0-.278C6.83 0 0 6.836 0 15.238c0 8.403 6.83 15.238 15.226 15.238 8.395 0 15.225-6.836 15.225-15.237C30.451 6.835 23.621 0 15.226 0zM79.72 9.102c.168-.196.28-.42.28-.699a1.138 1.138 0 00-.28-.756 1.015 1.015 0 00-.728-.309c-.28 0-.503.112-.728.309-.195.196-.28.448-.28.756 0 .28.085.503.28.7.225.195.449.28.728.28.28 0 .531-.085.728-.28zm.057 10.304v-9.044h-1.512l.028 9.044h1.484zm-3.5-8.595l-.251-.113c-.672-.392-1.484-.588-2.463-.588-1.064 0-1.931.252-2.575.756-.336.252-.56.504-.728.84a1.968 1.968 0 00-.252.98c0 .616.28 1.12.785 1.568.475.42 1.174.756 2.098 1.036.783.252 1.315.504 1.65.756.281.28.45.588.45.98 0 .42-.225.756-.617 1.036-.392.224-.953.364-1.651.364-.756 0-1.511-.196-2.295-.56l-.196-.14-.644 1.176.225.112c.867.42 1.82.615 2.854.615 1.12 0 2.044-.224 2.771-.727.364-.225.616-.532.812-.84a2.41 2.41 0 00.28-1.148v-.029c0-.672-.28-1.26-.812-1.735-.447-.392-1.175-.728-2.127-1.008-.728-.253-1.26-.505-1.568-.7-.335-.253-.475-.532-.475-.84 0-.365.14-.644.448-.896.336-.224.783-.365 1.37-.365.813 0 1.484.14 2.016.477l.196.14.7-1.147zm-9.123.671c-1.036-.896-2.323-1.371-3.807-1.371-1.456 0-2.659.447-3.638 1.315-1.092.98-1.651 2.324-1.651 4.088v7.028h1.454v-4.536a4.57 4.57 0 001.68 1.177c.672.307 1.4.447 2.184.447 1.483 0 2.742-.447 3.778-1.4 1.064-.924 1.594-2.044 1.594-3.36 0-1.344-.53-2.463-1.594-3.388zm-3.807-.112c1.092 0 2.043.337 2.77 1.008.757.672 1.148 1.511 1.148 2.52 0 .952-.336 1.736-1.007 2.408-.728.7-1.707 1.064-2.883 1.064s-2.128-.364-2.883-1.064c-.7-.7-1.035-1.484-1.035-2.407 0-.925.336-1.737 1.035-2.41.728-.727 1.68-1.119 2.855-1.119zm-7.613.56c-.979-1.232-2.378-1.82-4.254-1.82-1.4 0-2.604.392-3.639 1.232-1.119.868-1.678 2.044-1.678 3.5 0 .812.223 1.624.699 2.38.42.728 1.064 1.316 1.931 1.764.868.42 1.791.616 2.799.616.952 0 1.847-.196 2.715-.616.867-.448 1.51-1.036 1.93-1.764l.28-.476h-1.622c-.337.476-.813.868-1.428 1.176a4.337 4.337 0 01-1.931.448c-.896 0-1.651-.225-2.323-.672a3.687 3.687 0 01-1.4-1.848 7.624 7.624 0 012.856-.56l1.51.167 2.352.225c.727 0 1.344-.113 1.903-.28.224-.084.364-.196.42-.337.084-.111.084-.307.029-.532-.17-1.007-.533-1.874-1.149-2.602zm-.391 2.297l.028.056-.812.112-1.763-.168-2.463-.197h-.42a8.189 8.189 0 00-2.211.448c.111-1.036.616-1.848 1.455-2.436.7-.448 1.484-.7 2.323-.7 1.315 0 2.323.42 3.079 1.26.392.505.671 1.036.784 1.625zM39.641 10.11c-1.428 0-2.66.448-3.639 1.316-1.091.98-1.623 2.324-1.623 4.088l-.028 7.027h1.511l-.028-4.535a4.69 4.69 0 001.652 1.176c.7.308 1.427.447 2.21.447 1.484 0 2.744-.447 3.78-1.4 1.063-.924 1.566-2.044 1.566-3.36 0-1.344-.503-2.463-1.54-3.387-1.062-.896-2.322-1.372-3.861-1.372zm-2.855 2.38c.756-.728 1.68-1.12 2.855-1.12 1.12 0 2.043.337 2.798 1.008.757.672 1.12 1.511 1.12 2.52 0 .952-.336 1.736-.98 2.408-.727.7-1.679 1.064-2.91 1.064-1.148 0-2.127-.364-2.883-1.064-.672-.7-1.008-1.484-1.008-2.407 0-.925.336-1.736 1.008-2.409z" fill="#004883"/><path d="M23.773 3.902a3.67 3.67 0 01-.365-.316 14.157 14.157 0 00-8.182-2.59C7.366.996.996 7.372.996 15.238a14.193 14.193 0 002.816 8.506c4.762-1.407 8.916-3.854 12.477-7.392 3.556-3.52 6.054-7.686 7.484-12.45z" fill="#E32934"/><path d="M15.226 29.48c7.858 0 14.23-6.377 14.23-14.242 0-2.785-.8-5.38-2.18-7.574a.768.768 0 01-.096-.118c.29.956.436 1.949.435 2.948a9.922 9.922 0 01-1.107 4.578 10.358 10.358 0 01-2.983 3.457c-.995.734-2.189 1.356-3.594 1.866-1.118.41-2.573.833-4.376 1.243l-5.197 1.17a83.523 83.523 0 00-6.015 1.604 14.188 14.188 0 0010.883 5.068z" fill="#004883"/><defs><clipPath id="clip0_81:46"><path fill="#fff" d="M0 0h80v30.476H0z"/></clipPath></defs></svg>