<svg width="80" height="49" fill="none" xmlns="http://www.w3.org/2000/svg"><path d="M38.956 25.281c.07.014.141.026.212.039l-.212-.039zm.578.096c.082.013.165.023.247.034l-.247-.034zm.611.073c.08.008.16.015.241.02l-.24-.02zm.327.027l.204.012-.204-.012zm.303.017l.241.01-.241-.01zm.321.01c.18.005.36.005.54 0h-.54zm.625 0l.251-.01-.25.01zm.33-.014l.216-.013-.216.013zm.291-.019a8.65 8.65 0 00.236-.02l-.236.02zm.639-.064l.18-.024-.18.024zM54.018 5.16a2.264 2.264 0 00-.2-.095l.2.095zm-.656-.235a2.565 2.565 0 00-.253-.039l.253.039zm15.71 12.235l-.046.006.045-.006zm-58.644-3.555a2.411 2.411 0 01-.644-.972c-.107-.31-.246-.697-.246-1.026a3.543 3.543 0 011.81-3.097c.425-.232.582-.39.647-.472a.307.307 0 00-.098-.025c-1.273 0-1.925-.493-2.245-.91-.304-.391-.459-.895-.459-1.446 0-.268.038-.549.113-.835.358-.59.699-.429.908-.126.133.189 1.043.833 2.166.935.817.077 1.257.476 1.486.794a2.072 2.072 0 01.315 1.619c-.124.498-.65.946-1.382 1.518l-.415.344c-.608.53-.943 1.121-.943 1.622a1.022 1.022 0 00.128.492c.271.46 1.04.747 2.154.358.515-.178 1.506-.8 2.111-1.399.713-.708 1.663-.879 2.579-.95.794-.06 1.283-.255 1.627-.64 1.017-1.144 1.996-1.304 2.912-1.372.35-.027.37-.052.415-.114.505-.67 1.024-1.025 1.49-1.232a4.61 4.61 0 01.944-.287l.322-.08.08-.027c.51-.164.905-.3 1.943-1l.044-.027.044-.028.044-.026.045-.025.044-.023h.002l.043-.023h.002l.043-.022h.002l.044-.02.002-.002.044-.018h.002l.044-.019h.003l.044-.017.002-.001.044-.016.046-.015h.003l.044-.015h.003l.044-.013.003-.001.044-.012.003-.001.044-.01.004-.001.043-.01.004-.001.044-.01h.004l.044-.008h.004l.044-.008h.003l.044-.007h.004l.044-.006h.004l.043-.006h.005l.043-.004h.005l.043-.003h.005l.042-.003h.006l.042-.002.048-.002h.153l.09.005.042.002h.006l.041.004h.006l.041.004h.006l.041.005h.007l.04.005.007.001.04.005.007.001.04.006.006.001.04.007.007.001.04.007.006.001.04.007.006.002c.062.011.123.025.183.04l.038.01.007.001c.06.016.12.032.179.05l.035.01.008.003c.117.037.23.078.339.122l.03.012.04.017A12.778 12.778 0 0140.78.014a13.404 13.404 0 011.172 0h.001A12.785 12.785 0 0151.59 5.09a3.883 3.883 0 011-.21l.01-.001.033-.002.034-.002h.018l.033-.002h.179l.035.002h.007l.035.001h.008l.035.003h.006l.036.004h.007l.035.004h.006c.085.009.17.022.254.039l.037.007.005.002.036.008.005.001.037.01.005.001.038.01.004.001.038.01.004.002.037.011.004.002.038.012.004.001.04.014.04.014.002.001.038.015.002.001.04.016h.002c.067.03.134.06.2.096h.001l.04.022.039.022.04.024.038.025.04.025c.714.485 1.127.698 1.48.838.158.063.306.11.462.16l.082.029.325.08c.177.038.378.082.596.154.547.177 1.2.521 1.833 1.365.046.061.066.086.418.113.915.068 1.893.229 2.914 1.372.342.386.828.58 1.622.64.92.072 1.868.242 2.58.95.605.599 1.595 1.221 2.112 1.4 1.114.388 1.886.1 2.15-.358a.92.92 0 00.118-.316 1.05 1.05 0 00.016-.177c0-.5-.335-1.091-.942-1.622l-.075-.063-.344-.28c-.73-.572-1.256-1.021-1.383-1.519a2.105 2.105 0 01.315-1.619c.23-.318.675-.716 1.487-.794 1.129-.102 2.035-.746 2.167-.935.212-.302.55-.465.907.126.075.287.113.567.113.835 0 .554-.155 1.055-.458 1.446-.322.417-.973.91-2.247.91a.3.3 0 00-.096.025c.063.082.22.241.646.472a3.546 3.546 0 011.813 3.097c0 .329-.138.716-.249 1.027a2.444 2.444 0 01-.641.971c-.527.488-1.404.871-2.865.784a7.98 7.98 0 01-.461-.042c-.038.736-.24 1.61-.525 2.05-.086.14-.103.232-.103.278l.002.038c.009.003.648.38.648.38l.103.051s.06.029.068.035c.01-.003.221-.013.221-.013l.042-.006h.004c.4-.038 1.01-.233 1.27.49.068.192.11.359.148.506.08.303.147.528.413.732 0 0 .131-.113.28-.245.115-.101.228-.205.339-.311.185-.19.527-.093.774 0 .25.094.558.308.776.433.22.122.341.278.405.465.066.185.218.308.45.431.226.127.548.536.548 1.086a.783.783 0 00.103.397c.313.632.061.95-.12 1.084-.245.183-.677.258-1.082.192l.003.104-.592-.079c-.23-.029-.532.03-.713.067l-.042.012a1.228 1.228 0 01-1.316-.618c-.158-.276-.404-.533-.525-.604a2.088 2.088 0 01-.775.079 1.854 1.854 0 01-1.009-.44 2.698 2.698 0 01-.177-.162 1.985 1.985 0 00-1.646-.564l-.259.046c-.533.096-1.2.219-1.816-.156a4.919 4.919 0 00-.59-.28c-.56-.243-1.138-.493-1.217-1.021-.013-.094-.115-.266-.199-.403a3.372 3.372 0 01-.216-.395 1.144 1.144 0 01-.107-.43 1.89 1.89 0 01-.76.037l-.243-.037c-.41-.07-1.266-.21-1.538-.11-.544.194-2.253.289-2.721.182l-.335-.072a4.1 4.1 0 01-.514.445c.343.019.645-.023.852.03l.43.113c.138-.04.474-.036.665-.018l.505.037.575.055c.277.056.572.175.521.717a1 1 0 01-.254.542 5.43 5.43 0 00-.444.656l-.022.043c-.117.249-.29.477-.796.477-.064 0-.128.002-.192.008a1.3 1.3 0 01-.057.117c-.114.258-.278.617-.593.825l-.083.06c-.253.18-.673.475-1.316.242l-.221-.078c-.561-.202-1.409-.504-1.837-.738l-.06-.032c-.398-.218-.487-.262-.632-.241l-.08.012c-.306.043-.882.12-1.28-.539l-.037-.057a12.797 12.797 0 01-8.005 5.04l-.014.004c-.112.02-.224.039-.337.057l-.042.006-.154.023-.18.024-.11.014-.173.018-.12.013-.235.02-.075.005c-.072.005-.143.01-.216.013l-.08.004-.25.01-.086.001c-.18.005-.36.005-.539 0l-.08-.001-.242-.01-.098-.005-.204-.012-.086-.006-.24-.02-.12-.012-.157-.017-.088-.01a7.976 7.976 0 01-.247-.035l-.1-.014-.175-.028-.091-.015-.212-.038-.153-.03-.078-.017a11.713 11.713 0 01-.313-.07l-.027-.006-.163-.04-.084-.021a14.973 14.973 0 01-.29-.079l-.035-.01a12.8 12.8 0 01-6.983-5.028l-.218.33c-.395.66-.97.582-1.28.54l-.08-.013c-.144-.02-.236.023-.63.24l-.064.034c-.426.233-1.271.535-1.835.737l-.222.079c-.642.233-1.064-.064-1.311-.243l-.087-.06c-.314-.207-.477-.567-.593-.825 0 0-.038-.076-.056-.117a1.852 1.852 0 00-.193-.007c-.5 0-.68-.229-.794-.478l-.02-.042a5.137 5.137 0 00-.448-.657.986.986 0 01-.253-.542c-.052-.541.246-.66.521-.716l.576-.055.505-.038c.188-.017.524-.022.661.018l.431-.113c.206-.053.51-.01.85-.03a4.896 4.896 0 01-.512-.445l-.335.072c-.47.107-2.176.013-2.716-.182-.274-.1-1.13.04-1.54.11l-.247.038a1.884 1.884 0 01-.755-.038c-.013.309-.18.588-.324.825-.084.137-.19.31-.202.403-.074.528-.659.778-1.216 1.021a4.975 4.975 0 00-.589.28c-.611.375-1.28.253-1.816.156l-.26-.045a1.986 1.986 0 00-1.645.563c-.801.798-1.598.622-1.961.523-.12.071-.368.328-.525.605a1.23 1.23 0 01-1.317.617l-.044-.011c-.179-.038-.477-.096-.706-.068l-.596.08.007-.105c-.408.066-.84-.01-1.086-.192-.18-.134-.434-.452-.114-1.083a.818.818 0 00.099-.397c0-.551.32-.96.544-1.087.235-.122.39-.245.453-.431a.81.81 0 01.402-.465c.218-.124.528-.339.776-.433.248-.093.59-.189.777 0 .188.183.618.556.618.556.396-.305.358-.655.563-1.238.256-.723.869-.528 1.267-.49l.045.006s.215.01.221.013l.071-.035.1-.052.649-.38c.003-.007.003-.018.003-.037a.55.55 0 00-.103-.277c-.286-.441-.488-1.315-.524-2.05a7.91 7.91 0 01-.3.03c-1.557.124-2.482-.268-3.023-.774z" fill="#F8EE3F"/><path d="M14.259 13.812s-.13 1.252.436 2.355c0 0 .419.592-.016.972l-.866.502s-.117.087-.503.057c0 0-.534-.132-.712.104 0 0-.155.452-.35.825 0 0-.394.903-1.046 1.193 0 0-.52.119-.678.568 0 0-.168.316-.504.33 0 0-.25.08-.416.636 0 0-.09.36-.086.636 0 0 .427-.056.706.044 0 0 .684.23.99-.333 0 0 .592-1.01 1.03-.858 0 0 .881.294 1.504-.347 0 0 .854-.931 2.061-.74 0 0 1.36.275 1.784-.038 0 0 .858-.447 1.18-.558 0 0 .393-.115.434-.545 0 0 .24-.605.413-.806l-.648-.007s-.588.985-1.586 1.282c0 0-.545.217-1.64.04 0 0-1.574-.355-2.955 1.133 0 0-.19.272-.459.163 0 0 .764-1.298 2.44-1.605 0 0 .548-.117 1.006-.043 0 0 2.257.067 3.304-2.15 0 0-.113-1.89.387-2.337 0 0 .193-.06.154.306 0 0-.343 1.98.302 2.363 0 0 .374.294 1.067.185 0 0 1.05-.25 1.904-.104 0 0 1.313.31 2.441.167 0 0-.293-.448-.235-.982 0 0 .162-.383.347-.137 0 0 .434 1.43 1.62 1.86 0 0 1.06.384 1.042 1.724 0 0-.162.184-1.567.682 0 0-.525.165-.694-.226 0 0-.677-1.446-1.267-1.402l-1.107.09s-.378.097-.1.399c0 0 .38.502.534.802 0 0 .045.257.402.202 0 0 .494-.244.772.673 0 0 .255.458.687.605 0 0 .404.134.783-.078 0 0 1.829-.67 2.147-.907 0 0 .396-.22.71-.114 0 0 .548.13.774-.302l.567-.874s.124-.215.107-.486c0 0 .051-.268-.176-.54 0 0-.214-.226-.247-.39l-.404-.947s-.164-.253-.344-.357l-.54.04s.372.946.644 1.331c0 0 .367.561.349.918 0 0-.024.25-.123.354 0 0-.125.199-.175.295 0 0-.163.354-.296.433 0 0-.23.135-.285.14 0 0-.1.028-.026-.15 0 0 .302-.634.282-.974 0 0 .059-.353-.192-.56 0 0-.588-.925-.672-1.202 0 0-.184-.37-.282-.433 0 0-.206-.27.126-.395 0 0 .825-.186.973-.287 0 0 .397-.12.655-.944 0 0 .355-.962.35-1.556 0 0 .696 1.339-.414 2.7 0 0 .878.258 1.242 0 0 0 1.094-.16 1.305-.218 0 0 .275-.067.118.128 0 0-.33.468-.358.775 0 0-.021.244-.222.387 0 0-.622.434-.676.85 0 0-.133.4.142.305 0 0 .372-.172.503.001 0 0 .039.018-.105.179 0 0-.373.324-.401.76 0 0 .069.501.2.663 0 0 .17.232.435.158 0 0 .07-.057.198-.018 0 0 .131 0 .475-.12 0 0 .52-.142.695-.203 0 0 .662-.237.99-.22 0 0 .212-.024.483.03 0 0 .829.094 1.381-.515 0 0 .42-.332.563-.01 0 0 1.009 1.35 2.641.995 0 0-1.299-.533-1.636-1.259 0 0-.044-.616-.725-1.47 0 0-.208-.285-.007-.358 0 0 .116-.087.37.166 0 0 .646.619.88 1.185 0 0 .802 1.21 1.959.803 0 0-.909-.35-1.335-1.001 0 0-.264-.882-1.15-1.538 0 0-.035-.991-.449-1.548 0 0-.21-.93-.268-1.148 0 0-.223-.818-.221-1.044 0 0 .074-1.067-.617-1.899 0 0-.462-.889-1.183-1.508 0 0-.547-.675-.954-1.088 0 0-.535-.626-1.703-1.443 0 0-.529-.383-.916-.795 0 0-2.06-1.479-3.548-.293 0 0-1.027.697-1.886.913 0 0-1.763.205-2.515 1.426 0 0-.065.225-.776.311 0 0-1.561-.188-2.71 1.344 0 0-.535.52-1.592.646 0 0-1.725-.176-2.848 1.143 0 0-2.833 2.464-4.522.866 0 0-.875-.826.125-2.323 0 0 .635-.764 1.718-1.562 0 0 .878-.617.476-1.577 0 0-.213-.927-1.53-.951 0 0-1.651-.318-2.32-1.15 0 0-.745 2.62 2.182 2.576 0 0 .763.112.497.716 0 0-.374.517-.876.705 0 0-.883.385-1.282 1.668 0 0-.892 2.245 1.284 3.111.837.289 1.804.204 2.666.054zm-4.19 5.29a.534.534 0 01.445-.117c.347.074.137.373.137.373-.14.262-.598.703-.598.703-.407.304-.73-.058-.73-.058-.301-.297.091-.44.091-.44.229-.092.656-.46.656-.46zm-.872 1.404s.126.093.059.277c0 0-.323.882-.308 1.178 0 0-.715.128-.814-.224 0 0-.02-.136.097-.333 0 0 .121-.184.153-.52 0 0-.01-.846.539-.622.109.06.195.15.274.244zm25.205-1.79c-.126-.004-.158-.05-.142-.188.084-.384.393-.55.393-.55.58-.345.65 0 .65 0 .106.617-.383.695-.383.695-.097.034-.518.043-.518.043zm1.749-2.756c.01-.289.035-.932-.26-1.162-.109-.086-.54-.557-.54-.557-.065-.114-.115-.12-.115-.12-.09-.01-.204.197-.204.197-.306.59-.612.518-.612.518-.003-.108.07-.228.07-.228.148-.287.294-.574.44-.862.044-.102.085-.239.085-.239.296-.457.575-.109.575-.109.124.242.788 1.032.788 1.032a.7.7 0 01.161.362c.154 1.081-.388 1.168-.388 1.168zm-6.112-6.526c-.09-.163-.053-.329.038-.487.205-.314.397.029.397.029.71.985.186 2.461.186 2.461-.073-1.358-.62-2.003-.62-2.003zm38.066 4.378s.13 1.252-.436 2.355c0 0-.42.592.016.972l.866.502s.116.087.503.057c0 0 .534-.132.712.104 0 0 .155.452.349.825 0 0 .395.903 1.047 1.193 0 0 .52.119.677.568 0 0 .169.316.504.33 0 0 .251.08.417.636 0 0 .09.36.086.636 0 0-.428-.056-.706.044 0 0-.685.23-.99-.333 0 0-.592-1.01-1.03-.858 0 0-.882.294-1.504-.347 0 0-.854-.931-2.062-.74 0 0-1.359.275-1.783-.038 0 0-.858-.447-1.18-.558 0 0-.394-.115-.434-.545 0 0-.24-.605-.413-.806l.648-.007s.587.985 1.585 1.282c0 0 .546.217 1.641.04 0 0 1.574-.355 2.955 1.133 0 0 .189.272.458.163 0 0-.763-1.298-2.44-1.605 0 0-.547-.117-1.005-.043 0 0-2.258.067-3.305-2.15 0 0 .114-1.89-.386-2.337 0 0-.193-.06-.155.306 0 0 .343 1.98-.301 2.363 0 0-.375.294-1.068.185 0 0-1.05-.25-1.904-.104 0 0-1.313.31-2.441.167 0 0 .293-.448.236-.982 0 0-.162-.383-.348-.137 0 0-.434 1.43-1.62 1.86 0 0-1.06.384-1.042 1.724 0 0 .162.184 1.567.682 0 0 .526.165.695-.226 0 0 .677-1.446 1.267-1.402l1.107.09s.378.097.1.399c0 0-.38.502-.535.802 0 0-.044.257-.4.202 0 0-.495-.244-.774.673 0 0-.255.458-.686.605 0 0-.405.134-.783-.078 0 0-1.829-.67-2.147-.907 0 0-.396-.22-.71-.114 0 0-.547.13-.773-.302l-.567-.874s-.125-.215-.108-.486c0 0-.051-.268.176-.54 0 0 .214-.226.248-.39l.404-.947s.164-.253.343-.357l.54.04s-.372.946-.644 1.331c0 0-.368.561-.349.918 0 0 .025.25.123.354 0 0 .125.199.175.295 0 0 .163.354.296.433 0 0 .23.135.285.14 0 0 .1.028.026-.15 0 0-.302-.634-.283-.974 0 0-.058-.353.192-.56 0 0 .588-.925.673-1.202 0 0 .184-.37.282-.433 0 0 .205-.27-.126-.395 0 0-.825-.186-.973-.287 0 0-.397-.12-.655-.944 0 0-.355-.962-.35-1.556 0 0-.696 1.339.414 2.7 0 0-.878.258-1.242 0 0 0-1.093-.16-1.305-.218 0 0-.275-.067-.118.128 0 0 .33.468.358.775 0 0 .02.244.222.387 0 0 .622.434.676.85 0 0 .133.4-.142.305 0 0-.372-.172-.503.001 0 0-.039.018.105.179 0 0 .373.324.4.76 0 0-.068.501-.2.663 0 0-.168.232-.434.158 0 0-.07-.057-.199-.018 0 0-.13 0-.474-.12 0 0-.521-.142-.695-.203 0 0-.663-.237-.99-.22 0 0-.213-.024-.484.03 0 0-.829.094-1.381-.515 0 0-.42-.332-.563-.01 0 0-1.009 1.35-2.641.995 0 0 1.3-.533 1.636-1.259 0 0 .044-.616.725-1.47 0 0 .208-.285.007-.358 0 0-.116-.087-.37.166 0 0-.645.619-.879 1.185 0 0-.803 1.21-1.96.803 0 0 .908-.35 1.335-1.001 0 0 .264-.882 1.151-1.538 0 0 .035-.991.448-1.548 0 0 .212-.93.268-1.148 0 0 .223-.818.221-1.044 0 0-.074-1.067.617-1.899 0 0 .462-.889 1.183-1.508 0 0 .547-.675.954-1.088 0 0 .536-.626 1.704-1.443 0 0 .528-.383.915-.795 0 0 2.06-1.479 3.548-.293 0 0 1.028.697 1.886.913 0 0 1.764.205 2.515 1.426 0 0 .065.225.775.311 0 0 1.562-.188 2.712 1.344 0 0 .534.52 1.592.646 0 0 1.723-.176 2.846 1.143 0 0 2.833 2.464 4.523.866 0 0 .874-.826-.126-2.323 0 0-.634-.764-1.717-1.562 0 0-.879-.617-.476-1.577 0 0 .213-.927 1.53-.951 0 0 1.651-.318 2.319-1.15 0 0 .746 2.62-2.181 2.576 0 0-.764.112-.497.716 0 0 .374.517.876.705 0 0 .883.385 1.282 1.668 0 0 .892 2.245-1.285 3.111-.836.289-1.803.204-2.665.054zm4.189 5.29a.534.534 0 00-.444-.117c-.347.074-.137.373-.137.373.14.262.598.703.598.703.407.304.73-.058.73-.058.3-.297-.092-.44-.092-.44-.228-.092-.655-.46-.655-.46zm.872 1.404s-.126.093-.059.277c0 0 .324.882.309 1.178 0 0 .715.128.814-.224 0 0 .019-.136-.098-.333 0 0-.12-.184-.152-.52 0 0 .01-.846-.539-.622-.11.06-.195.15-.275.244zm-25.205-1.79c.126-.004.159-.05.143-.188a.867.867 0 00-.393-.55c-.58-.345-.65 0-.65 0-.106.617.382.695.382.695.098.034.518.043.518.043zm-1.748-2.756c-.01-.289-.036-.932.26-1.162.11-.086.54-.557.54-.557.065-.114.115-.12.115-.12.088-.01.204.197.204.197.306.59.612.518.612.518a.507.507 0 00-.07-.228 99.69 99.69 0 01-.44-.862 2.663 2.663 0 01-.086-.239c-.296-.457-.574-.109-.574-.109-.125.242-.788 1.032-.788 1.032a.7.7 0 00-.162.362c-.153 1.081.39 1.168.39 1.168zm6.111-6.526c.091-.163.054-.329-.038-.487-.205-.314-.396.029-.396.029-.71.985-.186 2.461-.186 2.461.072-1.358.62-2.003.62-2.003zM.013 29.86v18.08h3.659V33.31h1.723s2.69-.12 2.69 2.322c0 2.443-2.388 2.382-2.388 2.382H4.82v4.161l3.66 5.766h4.292l-5.11-7.393s4.203-.362 4.203-4.916c0-4.552-3.175-5.772-7.407-5.772H.013zm53.488 8.456s1.602-1.242 1.602-3.598-1.717-4.48-5.37-4.48h-6.12V47.94h7.538s5.402-.06 5.402-4.93c0-2.826-1.1-3.908-3.052-4.694zm-2.949 6.543h-3.28V33.325h1.753s2.383-.179 2.383 1.894-1.895 1.89-1.895 1.89H48.42v3.108h2.13c.56 0 2.338.27 2.338 2.312s-2.337 2.33-2.337 2.33zM76.57 29.504h3.417V47.94H76.57V29.504zm-5.88 0h3.462V47.94H70.69V29.504zM57.583 37.14h3.506v6.181s.122 2.082 2.087 2.082c1.965 0 1.936-2.082 1.936-2.082V37.17h3.536v6.364s.454 4.975-5.382 4.975c-5.835 0-5.683-4.372-5.683-5.156V37.14zM34.33 29.504v8.36s-1.693-1.296-3.63-1.296c-1.933 0-5.199 1.357-5.199 5.638s2.782 5.91 5.17 5.91c2.39 0 3.72-1.568 3.72-1.568v1.393h3.446V29.504H34.33zM31.671 45.1c-.183 0-2.45.03-2.45-2.743 0-2.775 2.479-2.865 2.479-2.865s2.782.09 2.782 2.804-2.63 2.804-2.812 2.804zm-13.063-8.533c5.866 0 5.624 5.7 5.624 5.7v.903H16.28c0 1.297 1.088 2.413 2.57 2.413 1.481 0 2.237-1.417 2.237-1.417l2.812 1.386c-1.3 1.961-3.053 2.744-5.019 2.744-6.108 0-6.228-5.065-6.228-5.698 0-.634.09-6.03 5.956-6.03zM16.34 41.09h4.355s-.182-2.05-2.147-2.05c-1.965 0-2.208 2.05-2.208 2.05z" fill="#CC2729"/><defs><clipPath id="clip0_81:80"><path fill="#fff" d="M0 0h80v48.508H0z"/></clipPath></defs></svg>