<svg width="80" height="34" fill="none" xmlns="http://www.w3.org/2000/svg"><path fill-rule="evenodd" clip-rule="evenodd" d="M54.136.003a5.914 5.914 0 00-2.307.644c-1.218.643-3.525 3.248-3.525 3.248-1.411 1.8.127 2.025.127 2.025 0 .032.032.032.065.032a9.996 9.996 0 00-.673.74c-.385.45-.546.836-.578 1.125v.29c.097.514.705.61.705.61 2.5.42 1.892 1.93 4.07 2.96.77.353 1.476.546 2.116.643 1.667.193 2.982-.386 3.879-.869 2.05-1.157 2.884-2.83 3.076-2.99.16-.16.898-1.415-.256-1.8.385-.515.641-.933.737-.997.097-.065.384-.547.384-.965 0-.418-.192-.804-.96-.9-1.571-.29-1.988-1.576-3.911-2.927-.994-.708-2.02-.9-2.949-.869zm0 11.19c-1.762-.225-2.724-1.479-3.365-2.219-.673-.771-1.442-1.125-1.795-1.221-.352-.065-.384-.032-.257-.225.129-.194.802-.933.802-.933 1.634 2.347 3.558 3.022 4.615 3.248.481.096.77.064.77.064 1.955.386 4.712-1.511 4.712-1.511-.77.9-2.5 2.797-4.84 2.83-.225 0-.449 0-.642-.033z" fill="#FFF22D"/><path fill-rule="evenodd" clip-rule="evenodd" d="M20.418 23.573l-3.911 9.742h7.308s-1.314-.675-.641-2.7c.705-2.026 1.378-3.891 1.378-3.891s.096-.194.257-.064c0 0 .48 1.125 2.788 1.06.192-.031.417-.031.609-.063 2.115-.193 4.263-1.19 5.48-4.116.29-.707.61-1.415.898-2.123 1.09-2.572 1.891-5.112.128-6.623-.032-.032-.096-.064-.128-.096-1.41-1.094-3.205-.997-6.379-.933-1.346 0-2.948.032-4.872-.064l-.897.16s1.378.837.737 2.637c-.255.739-1.441 3.794-2.755 7.074zm57.245 3.44c.737-.224 1.378-.868 1.57-1.769.257-1.125-.384-1.865-1.314-1.865-.097 0-.16.033-.256.033a2.176 2.176 0 00-1.123.546c-.256.225-.48.547-.64.9l-.096.386c-.097.45-.033.869.096 1.158.16.257.352.482.64.579.193.064.385.096.61.096v.032c.175 0 .35-.033.513-.096zm0-4.148c.128-.032.256-.032.384-.032 1.25 0 2.211.901 1.89 2.411a3.042 3.042 0 01-2.274 2.348c-.225.032-.417.065-.642.065-.16 0-.32-.033-.48-.033a3.73 3.73 0 01-.641-.224c-.642-.386-.994-1.126-.802-2.155a3.58 3.58 0 01.802-1.51 3.03 3.03 0 01.64-.483c.354-.194.738-.354 1.123-.387zm0 3.505l-.32-.932h-.257l-.225 1.092h-.544l.223-1.125.321-1.478h.961c.673 0 1.027.192.898.803-.096.483-.417.643-.769.675l.417 1.125h-.641l-.064-.16zm0-1.994h.032c.224 0 .48.033.448.29-.063.29-.224.354-.48.354h-.481l.129-.644h.352zM76.54 14.86c.385.74.225 1.543.16 1.993 0 .225-.063.515-.16.804a12.277 12.277 0 01-.64 1.704c-.29.708-.578 1.255-.578 1.255h-7.34c-.8 1.639-.513 3.954 2.116 3.826.128 0 .256 0 .384-.032 2.436-.225 4.103-1.576 4.103-1.576l-1.09 2.83s-.705 1.157-3.013 1.64c-.8.193-1.827.29-3.045.224-1.73-.063-2.916-.546-3.685-1.253-2.757-2.477-.385-7.717-.61-7.171.129-.322.32-.868.61-1.544.833-1.832 2.595-4.469 6.73-4.63h.674c2.563.065 4.006.547 4.743 1.158.322.257.513.515.641.772zm-6.057 3.698h.865c.385-.065 1.795-2.637-.064-2.83a1.623 1.623 0 00-.801.129c-1.25.514-1.73 2.572-1.73 2.572-.033.13.127.13.127.13h1.603v-.001zm-6.73-2.862h.416l.93-2.187h-2.244l.898-2.283 1.025-2.54h-1.987c-2.308 5.305-6.7 4.823-6.7 4.823l-.897 2.187h1.603l-3.301 8.231-1.443 3.57h7.692c-2.019-.902-1.378-2.573-1.378-2.573s2.276-5.917 3.654-9.228h1.731zm-10.257 1.35c-1.38 3.377-3.11 7.878-3.11 7.878s-.577 1.575 1.09 2.572h-7.692l2.244-5.562 3.333-8.329h5.577c-.257.515-.802 1.866-1.442 3.441zm-7.468.74c-.482-.322-1.38-.61-2.693.257-1.73 1.157-3.333 6.881-3.333 6.881s-.353 1.866 1.09 2.573H33.43s.48-1.19 1.154-2.83c1.282-3.215 3.237-8.039 3.27-8.2.063-.289.993-1.575-.45-2.733h5.417l-.481 1.415s.032.225.224 0c.16-.16 1.155-1.35 3.463-1.768a7.819 7.819 0 012.211-.13l-1.89 4.824s-.098-.16-.321-.289zM28.206 23.67c-.417.772-.898 1.19-1.666 1.061-1.539-.257 1.09-5.176 1.57-6.752 0 0 .032-.13.096-.29.225-.546.738-1.607 1.475-1.253.93.418.897.964-.096 3.6-.514 1.416-.898 2.766-1.379 3.634zm-3.91-16.077L21.7 12.48s-.065-2.348-1.282-3.73c-.61-.676-1.443-1.126-2.693-.997-3.782.354-2.788 3.858-2.34 4.984 0 0 3.206 8.007 3.237 8.585.064.579 1.186 3.344-1.538 6.462 0 0-4.071 5.788-12.95 2.766 0 0-3.205-1.094-4.134-4.34l3.686-4.695s-1.025 6.141 4.744 5.659c5.417-.483 1.699-7.653 1.378-8.521-.545-1.576-3.846-8.907-.032-12.283 2.725-2.444 7.244-3.151 10.642-1.993 1.698.578 3.14 1.64 3.878 3.215z" fill="#33A457"/></svg>