<svg width="200" height="60" fill="none" xmlns="http://www.w3.org/2000/svg"><path stroke="#C1C1C1" stroke-opacity=".3" d="M0 181.5h300M0 361.5h300"/><path d="M93.9 30.18c-2.108 0-3.863-.252-5.263-.756-1.381-.504-2.417-1.335-3.108-2.492-.672-1.176-1.008-2.744-1.008-4.704 0-1.997.345-3.565 1.036-4.704.71-1.139 1.755-1.95 3.136-2.436 1.4-.485 3.136-.728 5.208-.728 2.128 0 3.883.252 5.264.756 1.381.485 2.408 1.307 3.08 2.464.691 1.139 1.036 2.688 1.036 4.648 0 1.997-.355 3.584-1.064 4.76-.691 1.157-1.736 1.979-3.136 2.464-1.381.485-3.108.728-5.18.728zm0-2.324c1.27 0 2.316-.075 3.137-.224.84-.168 1.484-.448 1.932-.84.467-.41.784-.97.952-1.68.187-.728.28-1.661.28-2.8 0-1.157-.093-2.1-.28-2.828-.168-.747-.485-1.325-.952-1.736-.448-.41-1.092-.69-1.932-.84-.821-.168-1.867-.252-3.136-.252-1.25 0-2.287.084-3.108.252-.821.15-1.465.43-1.932.84-.467.41-.793.99-.98 1.736-.168.728-.252 1.67-.252 2.828 0 1.139.093 2.072.28 2.8.187.71.513 1.27.98 1.68.467.392 1.11.672 1.932.84.821.15 1.848.224 3.08.224zm-1.483 4.172l.084-8.988-.084-10.556h2.996l-.112 8.624L95.413 32l-2.996.028zM107.225 32l.112-9.072-.112-10.444.616-.056 1.652-.14a60.678 60.678 0 012.212-.14 50.111 50.111 0 012.324-.056c1.773 0 3.145.56 4.116 1.68.989 1.101 1.484 2.763 1.484 4.984 0 1.381-.177 2.53-.532 3.444-.355.896-.831 1.596-1.428 2.1a5.317 5.317 0 01-1.988 1.092 8.215 8.215 0 01-2.24.308c-.616 0-1.251-.019-1.904-.056a18.892 18.892 0 00-1.344-.084V32h-2.968zm6.356-8.736c.56 0 1.008-.037 1.344-.112.355-.075.635-.205.84-.392.28-.28.467-.775.56-1.484.112-.71.168-1.643.168-2.8 0-.933-.047-1.643-.14-2.128-.075-.504-.177-.859-.308-1.064-.131-.224-.261-.373-.392-.448-.168-.13-.448-.233-.84-.308a6.116 6.116 0 00-1.4-.14c-.635 0-1.241.028-1.82.084a24.49 24.49 0 00-1.4.168v8.316c.187.019.607.075 1.26.168.672.093 1.381.14 2.128.14zM123.823 32V12.484h10.248v2.576l-8.596-.112 1.372-1.316-.224 8.288-1.288-1.092h8.036v2.492h-8.036l1.288-1.148.224 8.652-1.372-1.344 8.596-.056V32h-10.248zm14.711 0V12.484h2.968l-.084 9.464v8.82l-1.344-1.344h8.764l-1.344 1.344.028-8.68-.056-9.604h2.968l-.084 9.604.056 8.68-1.344-1.344h8.68l-1.344 1.344v-8.764l-.084-9.52h2.968V32h-20.748zm32.858.392a9.327 9.327 0 01-2.912-.448c-.914-.299-1.726-.821-2.436-1.568-.69-.747-1.232-1.783-1.624-3.108-.392-1.325-.588-3.015-.588-5.068 0-2.053.196-3.733.588-5.04.392-1.325.934-2.352 1.624-3.08.71-.747 1.522-1.26 2.436-1.54a9.327 9.327 0 012.912-.448 9.08 9.08 0 012.884.448c.915.28 1.718.793 2.408 1.54.71.728 1.26 1.745 1.652 3.052.392 1.307.588 2.996.588 5.068 0 2.053-.196 3.743-.588 5.068-.392 1.325-.942 2.361-1.652 3.108-.69.747-1.493 1.27-2.408 1.568a9.061 9.061 0 01-2.884.448zm0-2.66c.747 0 1.4-.084 1.96-.252a2.533 2.533 0 001.372-1.008c.374-.523.644-1.279.812-2.268.187-.99.28-2.305.28-3.948 0-1.624-.084-2.93-.252-3.92-.168-1.008-.429-1.764-.784-2.268a2.629 2.629 0 00-1.4-1.064c-.56-.187-1.222-.28-1.988-.28-.802 0-1.484.093-2.044.28-.541.187-.989.541-1.344 1.064-.354.504-.616 1.26-.784 2.268-.168.99-.252 2.305-.252 3.948 0 1.624.084 2.93.252 3.92.168.99.43 1.745.784 2.268.374.504.84.84 1.4 1.008.56.168 1.223.252 1.988.252zM194.295 32l-7.756-10.108 7.196-9.408h3.584l-7.42 9.24v.168L198.047 32h-3.752zm-10.808 0l.084-9.912-.084-9.604h2.996V32h-2.996zM97.28 50.168c-.44 0-.856-.064-1.248-.192a2.496 2.496 0 01-1.043-.672c-.297-.32-.529-.764-.697-1.332-.168-.568-.252-1.292-.252-2.172 0-.88.084-1.6.252-2.16.168-.568.4-1.008.697-1.32.303-.32.651-.54 1.043-.66a3.996 3.996 0 011.249-.192c.44 0 .851.064 1.235.192.392.12.736.34 1.032.66.305.312.54.748.708 1.308.168.56.252 1.284.252 2.172 0 .88-.084 1.604-.252 2.172-.168.568-.403 1.012-.707 1.332a2.41 2.41 0 01-1.033.672 3.884 3.884 0 01-1.236.192zm0-1.14c.32 0 .6-.036.84-.108.24-.072.436-.216.588-.432.16-.224.276-.548.349-.972.08-.424.12-.988.12-1.692 0-.696-.037-1.256-.109-1.68-.072-.432-.183-.756-.335-.972a1.128 1.128 0 00-.6-.456c-.24-.08-.524-.12-.852-.12-.345 0-.637.04-.877.12-.231.08-.423.232-.575.456-.152.216-.264.54-.336.972-.072.424-.108.988-.108 1.692 0 .696.035 1.256.108 1.68.072.424.184.748.336.972.16.216.36.36.6.432.24.072.523.108.852.108zm5.184.972v-8.364h1.272l-.036 3.972-.564-.42h4.428l-.564.42-.036-3.972h1.272V50h-1.272l.036-4.128.564.42h-4.428l.564-.42.036 4.128h-1.272zm7.401.168l-.216-.948c.112-.016.216-.032.312-.048.096-.024.176-.048.24-.072a.835.835 0 00.372-.24c.088-.104.156-.28.204-.528.056-.248.096-.608.12-1.08l.372-5.616h4.848V50h-1.272l.06-7.272h-2.472l-.312 4.644a8.46 8.46 0 01-.204 1.428c-.096.384-.264.676-.504.876-.168.144-.392.26-.672.348a2.613 2.613 0 01-.876.144zm7.431-.168l2.28-8.364h1.728l2.28 8.364h-1.296l-.648-2.556.672.444h-3.72l.648-.444-.636 2.556h-1.308zm1.956-2.628l-.432-.576h3.252l-.432.576-1.296-5.148.708.552h-1.212l.696-.552-1.284 5.148zM124.788 50v-8.364h1.224l-.048 4.248v2.292l3.096-6.54h1.752V50h-1.224l.048-3.852v-3.216L126.3 50h-1.512zm2.988-8.676c-.608 0-1.08-.144-1.416-.432-.328-.288-.508-.748-.54-1.38l.816-.036c.04.288.144.504.312.648.168.144.444.216.828.216.424 0 .72-.072.888-.216.168-.144.272-.36.312-.648l.72.036c-.016.424-.104.772-.264 1.044-.16.264-.38.46-.66.588-.272.12-.604.18-.996.18zM133.167 50v-8.364h1.272l-.036 3.972-.564-.42h4.428l-.564.42-.036-3.972h1.272V50h-1.272l.036-4.128.564.42h-4.428l.564-.42.036 4.128h-1.272zm7.413-3.396v-1.068h2.856v1.068h-2.856zM145.037 50l.288-8.364h1.74l1.74 5.244h.084l1.764-5.244h1.74l.288 8.364h-1.26l-.048-7.032h-.084l-1.716 5.136h-1.44l-1.704-5.136h-.084L146.297 50h-1.26zm8.763 0l2.28-8.364h1.728l2.28 8.364h-1.296l-.648-2.556.672.444h-3.72l.648-.444-.636 2.556H153.8zm1.956-2.628l-.432-.576h3.252l-.432.576-1.296-5.148.708.552h-1.212l.696-.552-1.284 5.148zM161.292 50l.048-3.888-.048-4.476.264-.024.708-.06a26.058 26.058 0 011.944-.084c.76 0 1.348.24 1.764.72.424.472.636 1.184.636 2.136 0 .592-.076 1.084-.228 1.476-.152.384-.356.684-.612.9a2.279 2.279 0 01-.852.468 3.52 3.52 0 01-.96.132c-.264 0-.536-.008-.816-.024a8.106 8.106 0 00-.576-.036V50h-1.272zm2.724-3.744c.24 0 .432-.016.576-.048a.755.755 0 00.36-.168c.12-.12.2-.332.24-.636.048-.304.072-.704.072-1.2 0-.4-.02-.704-.06-.912-.032-.216-.076-.368-.132-.456a.513.513 0 00-.168-.192c-.072-.056-.192-.1-.36-.132a2.62 2.62 0 00-.6-.06c-.272 0-.532.012-.78.036-.248.024-.448.048-.6.072v3.564c.08.008.26.032.54.072.288.04.592.06.912.06zM173.037 50l-3.324-4.332 3.084-4.032h1.536l-3.18 3.96v.072L174.645 50h-1.608zm-4.632 0l.036-4.248-.036-4.116h1.284V50h-1.284zm7.231 0v-8.364h4.392v1.104l-3.684-.048.588-.564-.096 3.552-.552-.468h3.444v1.068h-3.444l.552-.492.096 3.708-.588-.576 3.684-.024V50h-4.392zm7.408 0l.024-7.296-2.34.036v-1.104h5.916v1.104l-2.364-.036.024 7.296h-1.26z" fill="#63A60E"/><path opacity=".2" d="M69.648 59.067c0-.512-11.474-.933-25.611-.933-14.138 0-25.612.421-25.612.933S29.899 60 44.037 60c14.17 0 25.611-.421 25.611-.933z" fill="#5D5D5D"/><path d="M44.398 11.81c11.146 0 20.187 8.277 20.187 18.481v18.482H44.4c-11.146 0-20.187-8.278-20.187-18.482V11.81h20.186z" fill="#63A60E"/><path opacity=".3" d="M61.692 20.78c-1.677 1.775-2.696 4.093-2.696 6.622 0 3.762 2.236 7.043 5.556 8.819v-5.93c0-3.461-1.019-6.712-2.86-9.511z" fill="#63A60E"/><path d="M53.769 13.947c-3.157 1.655-5.26 4.756-5.26 8.338 0 5.297 4.7 9.602 10.487 9.602 2.038 0 3.945-.542 5.556-1.475v-.12c0-7.104-4.372-13.275-10.784-16.345z" fill="#63A60E"/><path opacity=".5" d="M37.922 15.39c-5.195 0-9.962 1.656-13.71 4.456V30.32c0 10.205 9.041 18.482 20.186 18.482h9.666c3.518-3.552 5.655-8.247 5.655-13.425 0-11.046-9.764-19.986-21.797-19.986z" fill="#E0EDCF"/><path d="M64.552 48.743l-20.154.03c-11.145 0-20.186-8.278-20.186-18.482V11.84l40.34 36.903z" fill="#63A60E"/><path opacity=".3" d="M27.335 18.432c0 14.026 12.428 25.374 27.716 25.374 1.315 0 2.597-.09 3.846-.24L27.598 14.94a24.621 24.621 0 00-.263 3.492z" fill="#63A60E"/><path opacity=".3" d="M64.552 48.773L24.376 11.99c4.734 6.472 10.192 13.034 15.748 18.452 4.34 4.214 16.866 13.635 24.428 18.33z" fill="#63A60E"/><path opacity=".3" d="M37.396 23.88L24.212 11.84v18.48c0 8.157 5.786 15.08 13.775 17.519-3.419-3.161-5.523-7.495-5.523-12.251 0-4.515 1.874-8.609 4.932-11.71z" fill="#63A60E"/><path opacity=".3" d="M55.347 40.345c-3.42 3.822-8.614 6.29-14.434 6.29-3.88 0-7.496-1.083-10.487-2.95 3.616 3.161 8.515 5.118 13.94 5.118h20.186v-.03l-9.205-8.428z" fill="#63A60E"/><path opacity=".3" d="M25.395 22.887c0-2.98.56-5.87 1.611-8.519l-2.794-2.528v18.48c0 10.204 9.041 18.482 20.186 18.482h20.187v-.03l-2.005-1.836a29.736 29.736 0 01-9.337 1.474c-15.387-.03-27.848-11.438-27.848-25.524z" fill="#E0EDCF"/><path d="M64.224 52.355c1.413-.362 2.893.421 3.254 1.715.395 1.295-.46 2.65-1.906 2.98-1.414.361-2.894-.421-3.255-1.715-.362-1.295.493-2.62 1.907-2.98zm-.527-1.836c-2.531.632-4.044 2.98-3.353 5.297.657 2.318 3.255 3.702 5.786 3.07 2.532-.632 4.044-3.01 3.354-5.297-.658-2.318-3.255-3.672-5.787-3.07z" fill="#63A60E"/><path opacity=".5" d="M67.05 56.177a2.822 2.822 0 01-1.446.903c-1.414.361-2.893-.422-3.255-1.716a2.298 2.298 0 01.888-2.498c-.395-.512-.724-1.084-1.052-1.656-1.579 1.024-2.368 2.86-1.842 4.666.658 2.318 3.255 3.702 5.787 3.07 1.184-.3 2.137-.963 2.762-1.836a34.044 34.044 0 01-1.841-.933z" fill="#63A60E"/><path d="M25.165 52.355c1.413-.331 2.893.451 3.255 1.745.361 1.295-.494 2.65-1.907 2.98-1.414.331-2.894-.451-3.255-1.745-.362-1.295.493-2.65 1.907-2.98zm-.526-1.836c-2.532.602-4.044 2.98-3.387 5.297.658 2.318 3.255 3.702 5.787 3.1 2.531-.602 4.044-2.98 3.419-5.297-.69-2.318-3.288-3.703-5.82-3.1z" fill="#63A60E"/><path opacity=".5" d="M27.96 56.207a2.596 2.596 0 01-1.447.873c-1.414.331-2.893-.452-3.255-1.746-.263-.963.132-1.926.888-2.498-.395-.512-.723-1.084-1.02-1.656-1.577.994-2.4 2.83-1.873 4.636.657 2.317 3.255 3.702 5.786 3.1 1.184-.27 2.17-.963 2.762-1.836a12.63 12.63 0 01-1.841-.873z" fill="#63A60E"/><path d="M25.494 10.546c-.625 0-1.15-.482-1.15-1.054 0-2.468-.757-4.334-2.204-5.568-2.334-2.017-5.852-1.806-5.885-1.806-.624.06-1.183-.392-1.25-.964-.065-.572.428-1.083 1.053-1.143.197 0 4.537-.301 7.628 2.317 1.972 1.656 2.959 4.064 2.959 7.134 0 .602-.494 1.084-1.151 1.084z" fill="#63A60E"/></svg>