<svg width="37" height="40" fill="none" xmlns="http://www.w3.org/2000/svg"><path opacity=".2" d="M36.432 39.378c0-.341-7.65-.622-17.074-.622-9.425 0-17.075.28-17.075.622 0 .341 7.65.622 17.075.622 9.447 0 17.074-.28 17.074-.622z" fill="#5D5D5D"/><path d="M19.599 7.873c7.43 0 13.458 5.519 13.458 12.321v12.321H19.599c-7.43 0-13.458-5.518-13.458-12.32V7.872H19.6z" fill="#fff"/><path opacity=".3" d="M31.128 13.853c-1.118 1.184-1.797 2.73-1.797 4.415 0 2.508 1.49 4.695 3.704 5.88v-3.954c0-2.307-.68-4.475-1.907-6.34z" fill="#fff"/><path d="M25.846 9.298c-2.105 1.104-3.507 3.17-3.507 5.558 0 3.532 3.134 6.402 6.992 6.402 1.359 0 2.63-.361 3.704-.984v-.08c0-4.736-2.915-8.85-7.19-10.896z" fill="#fff"/><path opacity=".5" d="M15.281 10.26c-3.463 0-6.641 1.104-9.14 2.97v6.984c0 6.802 6.028 12.32 13.458 12.32h6.444c2.345-2.367 3.77-5.498 3.77-8.95 0-7.364-6.51-13.323-14.532-13.323z" fill="#F8F6EC"/><path d="M33.035 32.495l-13.436.02c-7.43 0-13.458-5.518-13.458-12.32V7.892l26.894 24.602z" fill="#fff"/><path opacity=".3" d="M8.223 12.288c0 9.351 8.285 16.916 18.477 16.916.877 0 1.732-.06 2.565-.16L8.399 9.96a16.36 16.36 0 00-.176 2.328z" fill="#fff"/><path opacity=".3" d="M33.035 32.515L6.25 7.994c3.156 4.314 6.794 8.689 10.498 12.3 2.894 2.81 11.245 9.09 16.286 12.221z" fill="#fff"/><path opacity=".3" d="M14.93 15.92L6.141 7.893v12.321c0 5.438 3.858 10.054 9.184 11.68-2.28-2.108-3.682-4.997-3.682-8.168 0-3.01 1.249-5.74 3.287-7.806z" fill="#fff"/><path opacity=".3" d="M26.898 26.897c-2.28 2.548-5.743 4.194-9.622 4.194-2.587 0-4.998-.723-6.992-1.967 2.41 2.107 5.677 3.411 9.293 3.411h13.458v-.02l-6.137-5.618z" fill="#fff"/><path opacity=".3" d="M6.93 15.258a15.4 15.4 0 011.074-5.68L6.141 7.894v12.321c0 6.803 6.028 12.321 13.458 12.321h13.458v-.02l-1.337-1.224c-1.95.642-4.033.983-6.225.983C15.237 32.254 6.93 24.65 6.93 15.258z" fill="#F8F6EC"/><path d="M32.816 34.903c.942-.24 1.928.281 2.17 1.144.262.863-.307 1.766-1.272 1.986-.942.241-1.929-.28-2.17-1.143-.24-.863.329-1.746 1.271-1.987zm-.351-1.224c-1.688.421-2.696 1.987-2.236 3.532.439 1.545 2.17 2.468 3.858 2.047 1.688-.422 2.696-2.007 2.235-3.532-.438-1.545-2.17-2.448-3.857-2.047z" fill="#fff"/><path opacity=".5" d="M34.7 37.451c-.241.281-.57.502-.964.602-.943.241-1.93-.28-2.17-1.143a1.532 1.532 0 01.592-1.666c-.263-.341-.483-.722-.702-1.104-1.052.682-1.578 1.907-1.227 3.11.438 1.546 2.17 2.469 3.857 2.047.79-.2 1.425-.642 1.842-1.224-.417-.2-.833-.401-1.228-.622z" fill="#fff"/><path d="M6.776 34.903c.943-.22 1.93.301 2.17 1.164.241.863-.329 1.766-1.271 1.987-.943.22-1.929-.301-2.17-1.164-.241-.863.329-1.766 1.271-1.987zm-.35-1.224c-1.688.401-2.696 1.987-2.258 3.532.438 1.545 2.17 2.468 3.858 2.067 1.687-.402 2.696-1.987 2.28-3.532-.461-1.545-2.193-2.468-3.88-2.067z" fill="#fff"/><path opacity=".5" d="M8.64 37.471a1.73 1.73 0 01-.965.582c-.942.221-1.929-.3-2.17-1.164-.175-.642.088-1.284.592-1.665a7.283 7.283 0 01-.68-1.104c-1.051.662-1.6 1.887-1.249 3.09.439 1.546 2.17 2.469 3.858 2.067.789-.18 1.447-.642 1.841-1.224a8.419 8.419 0 01-1.227-.582z" fill="#fff"/><path d="M6.996 7.03c-.417 0-.767-.32-.767-.702 0-1.645-.504-2.89-1.469-3.712C3.204 1.27.86 1.412.837 1.412.42 1.452.047 1.15.004.77-.04.388.289.047.705.007c.132 0 3.025-.2 5.085 1.545 1.315 1.104 1.973 2.71 1.973 4.756 0 .401-.329.722-.767.722z" fill="#fff"/></svg>