<svg width="50" height="50" fill="none" xmlns="http://www.w3.org/2000/svg"><path d="M33.691 50H11.72C5.257 50 0 44.743 0 38.281V11.72C0 5.257 5.257 0 11.719 0H38.28C44.743 0 50 5.257 50 11.719v17.285c-.103 2.591-3.804 2.59-3.906 0V11.719c0-4.308-3.505-7.813-7.813-7.813H11.72c-4.308 0-7.813 3.505-7.813 7.813V38.28c0 4.308 3.505 7.813 7.813 7.813h21.97c2.592.103 2.59 3.804 0 3.906zm-1.757-39.258A1.953 1.953 0 0029.98 8.79h-9.96c-2.592.103-2.59 3.804 0 3.906h9.96a1.953 1.953 0 001.954-1.953zm-.586 32.13c-.499 0-.998-.19-1.379-.57l-3.25-3.24A5.802 5.802 0 0125 34.928a5.8 5.8 0 011.718-4.136l3.266-3.186a1.953 1.953 0 112.727 2.797l-3.241 3.161c-.749.723-.746 2.013.006 2.733l3.25 3.238c1.235 1.224.338 3.347-1.378 3.337zm16.18 4.618c5.313-5.334 1.478-14.597-6.073-14.58h-6.982c-2.592.103-2.59 3.804 0 3.906h6.982a4.644 4.644 0 014.639 4.64c0 2.557-2.06 4.638-4.59 4.638-2.59.102-2.591 3.803 0 3.906a8.415 8.415 0 006.025-2.51z" fill="#63A60E"/></svg>