<svg width="50" height="50" fill="none" xmlns="http://www.w3.org/2000/svg"><path d="M48.512 34.392a1.463 1.463 0 001.383-1.46c0-4.216-3.384-7.518-7.703-7.518h-1.428l-1.745-8.281a4.76 4.76 0 002.865-4.363 4.756 4.756 0 00-4.748-4.754h-6.75c-.808 0-1.463.656-1.463 1.465v1.824h-3.596a1.464 1.464 0 000 2.93h3.596v1.824c0 .809.655 1.465 1.463 1.465h.65a8.187 8.187 0 00-1.944 5.302v8.336a.077.077 0 01-.077.078h-5.91a.078.078 0 01-.075-.056l-1.593-5.39a3.017 3.017 0 002.233-2.91c0-3.307-2.687-5.997-5.989-5.997H4.499A4.506 4.506 0 000 21.391a4.509 4.509 0 003.871 4.46 11.307 11.307 0 00-3.779 8.441v4.561c0 .809.656 1.465 1.464 1.465H2.82c.682 3.402 3.689 5.974 7.284 5.974 3.596 0 6.603-2.572 7.284-5.974h17.898c.681 3.402 3.688 5.974 7.284 5.974 4.096 0 7.429-3.337 7.429-7.439a7.404 7.404 0 00-1.488-4.46zm-1.783-2.925h-3.294a7.425 7.425 0 00-2.395.107v-3.23h1.152c2.143 0 3.914 1.29 4.537 3.123zm-14.88-20.521h5.287a1.825 1.825 0 010 3.648h-5.287v-3.648zm-8.744 23.223h5.91a3.009 3.009 0 003.003-3.007v-8.336a5.297 5.297 0 014.123-5.16l1.974 9.366v5.873a7.452 7.452 0 00-2.828 4.483H20.74c-.683-5.256-5.023-9.188-10.44-9.188-2.416 0-4.585.79-6.295 2.146 1.413-2.646 4.2-4.45 7.4-4.45h7.01l1.809 6.12a3.02 3.02 0 002.88 2.153zM3.137 37.39c.256-1.56.922-2.965 1.94-4.054 1.329-1.422 3.184-2.205 5.223-2.205 3.774 0 6.823 2.652 7.477 6.258H3.137zM4.5 22.965a1.575 1.575 0 010-3.15h13.18a3.068 3.068 0 013.063 3.067c-.013.06-.11.1-.289.083H4.5zm5.606 20.396a4.51 4.51 0 01-4.258-3.044h8.516a4.51 4.51 0 01-4.258 3.044zm32.466 0a4.511 4.511 0 01-4.503-4.51 4.511 4.511 0 014.503-4.508 4.511 4.511 0 014.503 4.509 4.511 4.511 0 01-4.503 4.509z" fill="#63A60E"/><path d="M42.57 40.328a1.474 1.474 0 100-2.948 1.474 1.474 0 000 2.947zM1.524 12.64h13.122a1.464 1.464 0 000-2.929H1.524a1.464 1.464 0 000 2.93zm4.861-6.002H19.62a1.464 1.464 0 000-2.93H6.385a1.464 1.464 0 000 2.93z" fill="#63A60E"/></svg>