<svg width="512" height="512" fill="none" xmlns="http://www.w3.org/2000/svg"><path opacity=".2" d="M491.933 504.037c0-4.366-97.914-7.962-218.553-7.962-120.638 0-218.552 3.596-218.552 7.962 0 4.367 97.914 7.963 218.552 7.963 120.919 0 218.553-3.596 218.553-7.963z" fill="#5D5D5D"/><path d="M276.466 100.777c95.108 0 172.261 70.635 172.261 157.709v157.708H276.466c-95.108 0-172.261-70.635-172.261-157.708V100.777h172.261z" fill="#63A60F"/><path opacity=".3" d="M424.038 177.32c-14.309 15.154-23.006 34.932-23.006 56.508 0 32.106 19.078 60.104 47.414 75.258v-50.6c0-29.539-8.697-57.279-24.408-81.166z" fill="#63A60F"/><path d="M356.424 119.014c-26.933 14.127-44.889 40.583-44.889 71.148 0 45.206 40.12 81.937 89.497 81.937 17.395 0 33.667-4.624 47.414-12.586v-1.028c0-60.617-37.314-113.272-92.022-139.471z" fill="#63A60F"/><path opacity=".5" d="M221.197 131.335c-44.328 0-85.009 14.127-116.992 38.015v89.385c0 87.074 77.153 157.709 172.261 157.709h82.483c30.019-30.309 48.255-70.379 48.255-114.557 0-94.266-83.324-170.552-186.007-170.552z" fill="#EFF6E7"/><path d="M448.446 415.936l-171.98.257c-95.108 0-172.261-70.635-172.261-157.708V101.033l344.241 314.903z" fill="#63A60F"/><path opacity=".3" d="M130.858 157.285c0 119.694 106.05 216.528 236.508 216.528 11.222 0 22.164-.771 32.825-2.055L133.103 127.49c-1.403 9.76-2.245 19.777-2.245 29.795z" fill="#63A60F"/><path opacity=".3" d="M448.446 416.193L105.608 102.318c40.4 55.223 86.972 111.218 134.386 157.451 37.033 35.96 143.925 116.355 208.452 156.424z" fill="#63A60F"/><path opacity=".3" d="M216.708 203.775L104.205 101.033v157.709c0 69.607 49.378 128.684 117.553 149.489-29.178-26.97-47.134-63.957-47.134-104.54 0-38.528 15.992-73.46 42.084-99.916z" fill="#63A60F"/><path opacity=".3" d="M369.891 344.275c-29.178 32.62-73.506 53.683-123.164 53.683-33.105 0-63.966-9.247-89.497-25.172 30.861 26.97 72.664 43.665 118.956 43.665h172.26v-.257l-78.555-71.919z" fill="#63A60F"/><path opacity=".3" d="M114.305 195.299c0-25.429 4.77-50.087 13.747-72.69l-23.847-21.576v157.709c0 87.073 77.153 157.708 172.261 157.708h172.261v-.257l-17.114-15.668c-24.97 8.22-51.622 12.586-79.678 12.586-131.3-.257-237.63-97.604-237.63-217.812z" fill="#EFF6E7"/><path d="M445.641 446.759c12.064-3.082 24.689 3.596 27.775 14.641 3.367 11.045-3.927 22.603-16.272 25.429-12.064 3.082-24.689-3.596-27.775-14.641-3.086-11.045 4.209-22.346 16.272-25.429zm-4.488-15.668c-21.603 5.394-34.509 25.429-28.617 45.207 5.611 19.777 27.775 31.593 49.378 26.199 21.602-5.394 34.508-25.686 28.616-45.207-5.611-19.777-27.775-31.336-49.377-26.199z" fill="#63A60F"/><path opacity=".5" d="M469.766 479.376c-3.086 3.596-7.294 6.421-12.344 7.705-12.064 3.083-24.689-3.596-27.775-14.64-2.245-8.22.841-16.439 7.575-21.319-3.367-4.367-6.173-9.247-8.978-14.127-13.467 8.733-20.2 24.401-15.711 39.812 5.611 19.778 27.775 31.593 49.378 26.199 10.099-2.568 18.236-8.219 23.566-15.668-5.33-2.568-10.661-5.137-15.711-7.962z" fill="#63A60F"/><path d="M112.338 446.76c12.064-2.826 24.689 3.852 27.775 14.897 3.086 11.045-4.208 22.603-16.272 25.429-12.064 2.825-24.689-3.853-27.775-14.898-3.086-11.045 4.209-22.603 16.272-25.428zm-4.488-15.669c-21.603 5.138-34.509 25.429-28.898 45.207 5.612 19.777 27.775 31.593 49.378 26.456 21.603-5.137 34.508-25.429 29.178-45.207-5.892-19.777-28.056-31.593-49.658-26.456z" fill="#63A60F"/><path opacity=".5" d="M136.189 479.633c-3.086 3.596-7.294 6.422-12.344 7.449-12.064 2.825-24.689-3.853-27.775-14.898-2.244-8.219 1.122-16.438 7.575-21.318-3.367-4.367-6.172-9.247-8.697-14.127-13.467 8.476-20.48 24.144-15.992 39.555 5.611 19.778 27.775 31.593 49.378 26.456 10.1-2.312 18.516-8.219 23.566-15.668-5.611-2.055-10.661-4.623-15.711-7.449z" fill="#63A60F"/><path d="M115.147 89.989c-5.33 0-9.819-4.11-9.819-8.99 0-21.062-6.453-36.987-18.797-47.518-19.92-17.21-49.94-15.412-50.22-15.412-5.33.514-10.1-3.339-10.66-8.219-.562-4.88 3.646-9.247 8.977-9.76 1.683 0 38.717-2.569 65.089 19.777 16.833 14.128 25.25 34.676 25.25 60.875 0 5.137-4.209 9.247-9.82 9.247z" fill="#63A60F"/></svg>