<svg width="200" height="60" viewBox="0 0 200 60" fill="none" xmlns="http://www.w3.org/2000/svg">
<line y1="181.5" x2="300" y2="181.5" stroke="#C1C1C1" stroke-opacity="0.3"/>
<line y1="361.5" x2="300" y2="361.5" stroke="#C1C1C1" stroke-opacity="0.3"/>
<path d="M93.9009 30.18C91.7916 30.18 90.0369 29.928 88.6369 29.424C87.2556 28.92 86.2196 28.0893 85.5289 26.932C84.8569 25.756 84.5209 24.188 84.5209 22.228C84.5209 20.2307 84.8662 18.6627 85.5569 17.524C86.2662 16.3853 87.3116 15.5733 88.6929 15.088C90.0929 14.6027 91.8289 14.36 93.9009 14.36C96.0289 14.36 97.7836 14.612 99.1649 15.116C100.546 15.6013 101.573 16.4227 102.245 17.58C102.936 18.7187 103.281 20.268 103.281 22.228C103.281 24.2253 102.926 25.812 102.217 26.988C101.526 28.1453 100.481 28.9667 99.0809 29.452C97.6996 29.9373 95.9729 30.18 93.9009 30.18ZM93.9009 27.856C95.1702 27.856 96.2156 27.7813 97.0369 27.632C97.8769 27.464 98.5209 27.184 98.9689 26.792C99.4356 26.3813 99.7529 25.8213 99.9209 25.112C100.108 24.384 100.201 23.4507 100.201 22.312C100.201 21.1547 100.108 20.212 99.9209 19.484C99.7529 18.7373 99.4356 18.1587 98.9689 17.748C98.5209 17.3373 97.8769 17.0573 97.0369 16.908C96.2156 16.74 95.1702 16.656 93.9009 16.656C92.6502 16.656 91.6142 16.74 90.7929 16.908C89.9716 17.0573 89.3276 17.3373 88.8609 17.748C88.3942 18.1587 88.0676 18.7373 87.8809 19.484C87.7129 20.212 87.6289 21.1547 87.6289 22.312C87.6289 23.4507 87.7222 24.384 87.9089 25.112C88.0956 25.8213 88.4222 26.3813 88.8889 26.792C89.3556 27.184 89.9996 27.464 90.8209 27.632C91.6422 27.7813 92.6689 27.856 93.9009 27.856ZM92.4169 32.028L92.5009 23.04L92.4169 12.484H95.4129L95.3009 21.108L95.4129 32L92.4169 32.028ZM107.225 32L107.337 22.928L107.225 12.484C107.225 12.484 107.43 12.4653 107.841 12.428C108.27 12.3907 108.821 12.344 109.493 12.288C110.165 12.232 110.902 12.1853 111.705 12.148C112.508 12.1107 113.282 12.092 114.029 12.092C115.802 12.092 117.174 12.652 118.145 13.772C119.134 14.8733 119.629 16.5347 119.629 18.756C119.629 20.1373 119.452 21.2853 119.097 22.2C118.742 23.096 118.266 23.796 117.669 24.3C117.09 24.804 116.428 25.168 115.681 25.392C114.953 25.5973 114.206 25.7 113.441 25.7C112.825 25.7 112.19 25.6813 111.537 25.644C110.884 25.588 110.436 25.56 110.193 25.56V32H107.225ZM113.581 23.264C114.141 23.264 114.589 23.2267 114.925 23.152C115.28 23.0773 115.56 22.9467 115.765 22.76C116.045 22.48 116.232 21.9853 116.325 21.276C116.437 20.5667 116.493 19.6333 116.493 18.476C116.493 17.5427 116.446 16.8333 116.353 16.348C116.278 15.844 116.176 15.4893 116.045 15.284C115.914 15.06 115.784 14.9107 115.653 14.836C115.485 14.7053 115.205 14.6027 114.813 14.528C114.421 14.4347 113.954 14.388 113.413 14.388C112.778 14.388 112.172 14.416 111.593 14.472C111.014 14.528 110.548 14.584 110.193 14.64V22.956C110.38 22.9747 110.8 23.0307 111.453 23.124C112.125 23.2173 112.834 23.264 113.581 23.264ZM123.823 32V12.484H134.071V15.06L125.475 14.948L126.847 13.632L126.623 21.92L125.335 20.828H133.371V23.32H125.335L126.623 22.172L126.847 30.824L125.475 29.48L134.071 29.424V32H123.823ZM138.534 32V12.484H141.502L141.418 21.948V30.768L140.074 29.424H148.838L147.494 30.768L147.522 22.088L147.466 12.484H150.434L150.35 22.088L150.406 30.768L149.062 29.424H157.742L156.398 30.768V22.004L156.314 12.484H159.282V32H138.534ZM171.392 32.392C170.366 32.392 169.395 32.2427 168.48 31.944C167.566 31.6453 166.754 31.1227 166.044 30.376C165.354 29.6293 164.812 28.5933 164.42 27.268C164.028 25.9427 163.832 24.2533 163.832 22.2C163.832 20.1467 164.028 18.4667 164.42 17.16C164.812 15.8347 165.354 14.808 166.044 14.08C166.754 13.3333 167.566 12.82 168.48 12.54C169.395 12.2413 170.366 12.092 171.392 12.092C172.419 12.092 173.38 12.2413 174.276 12.54C175.191 12.82 175.994 13.3333 176.684 14.08C177.394 14.808 177.944 15.8253 178.336 17.132C178.728 18.4387 178.924 20.128 178.924 22.2C178.924 24.2533 178.728 25.9427 178.336 27.268C177.944 28.5933 177.394 29.6293 176.684 30.376C175.994 31.1227 175.191 31.6453 174.276 31.944C173.38 32.2427 172.419 32.392 171.392 32.392ZM171.392 29.732C172.139 29.732 172.792 29.648 173.352 29.48C173.912 29.312 174.37 28.976 174.724 28.472C175.098 27.9493 175.368 27.1933 175.536 26.204C175.723 25.2147 175.816 23.8987 175.816 22.256C175.816 20.632 175.732 19.3253 175.564 18.336C175.396 17.328 175.135 16.572 174.78 16.068C174.426 15.5453 173.959 15.1907 173.38 15.004C172.82 14.8173 172.158 14.724 171.392 14.724C170.59 14.724 169.908 14.8173 169.348 15.004C168.807 15.1907 168.359 15.5453 168.004 16.068C167.65 16.572 167.388 17.328 167.22 18.336C167.052 19.3253 166.968 20.6413 166.968 22.284C166.968 23.908 167.052 25.2147 167.22 26.204C167.388 27.1933 167.65 27.9493 168.004 28.472C168.378 28.976 168.844 29.312 169.404 29.48C169.964 29.648 170.627 29.732 171.392 29.732ZM194.295 32L186.539 21.892L193.735 12.484H197.319L189.899 21.724V21.892L198.047 32H194.295ZM183.487 32L183.571 22.088L183.487 12.484H186.483V32H183.487Z" fill="#63A60E"/>
<path d="M97.2805 50.168C96.8405 50.168 96.4245 50.104 96.0325 49.976C95.6405 49.848 95.2925 49.624 94.9885 49.304C94.6925 48.984 94.4605 48.54 94.2925 47.972C94.1245 47.404 94.0405 46.68 94.0405 45.8C94.0405 44.92 94.1245 44.2 94.2925 43.64C94.4605 43.072 94.6925 42.632 94.9885 42.32C95.2925 42 95.6405 41.78 96.0325 41.66C96.4245 41.532 96.8405 41.468 97.2805 41.468C97.7205 41.468 98.1325 41.532 98.5165 41.66C98.9085 41.78 99.2525 42 99.5485 42.32C99.8525 42.632 100.088 43.068 100.256 43.628C100.424 44.188 100.508 44.912 100.508 45.8C100.508 46.68 100.424 47.404 100.256 47.972C100.088 48.54 99.8525 48.984 99.5485 49.304C99.2525 49.624 98.9085 49.848 98.5165 49.976C98.1325 50.104 97.7205 50.168 97.2805 50.168ZM97.2805 49.028C97.6005 49.028 97.8805 48.992 98.1205 48.92C98.3605 48.848 98.5565 48.704 98.7085 48.488C98.8685 48.264 98.9845 47.94 99.0565 47.516C99.1365 47.092 99.1765 46.528 99.1765 45.824C99.1765 45.128 99.1405 44.568 99.0685 44.144C98.9965 43.712 98.8845 43.388 98.7325 43.172C98.5805 42.948 98.3805 42.796 98.1325 42.716C97.8925 42.636 97.6085 42.596 97.2805 42.596C96.9365 42.596 96.6445 42.636 96.4045 42.716C96.1725 42.796 95.9805 42.948 95.8285 43.172C95.6765 43.388 95.5645 43.712 95.4925 44.144C95.4205 44.568 95.3845 45.132 95.3845 45.836C95.3845 46.532 95.4205 47.092 95.4925 47.516C95.5645 47.94 95.6765 48.264 95.8285 48.488C95.9885 48.704 96.1885 48.848 96.4285 48.92C96.6685 48.992 96.9525 49.028 97.2805 49.028ZM102.464 50V41.636H103.736L103.7 45.608L103.136 45.188H107.564L107 45.608L106.964 41.636H108.236V50H106.964L107 45.872L107.564 46.292H103.136L103.7 45.872L103.736 50H102.464ZM109.865 50.168L109.649 49.22C109.761 49.204 109.865 49.188 109.961 49.172C110.057 49.148 110.137 49.124 110.201 49.1C110.361 49.044 110.485 48.964 110.573 48.86C110.661 48.756 110.729 48.58 110.777 48.332C110.833 48.084 110.873 47.724 110.897 47.252L111.269 41.636H116.117V50H114.845L114.905 42.728H112.433L112.121 47.372C112.081 47.94 112.013 48.416 111.917 48.8C111.821 49.184 111.653 49.476 111.413 49.676C111.245 49.82 111.021 49.936 110.741 50.024C110.469 50.12 110.177 50.168 109.865 50.168ZM117.296 50L119.576 41.636H121.304L123.584 50H122.288L121.64 47.444L122.312 47.888H118.592L119.24 47.444L118.604 50H117.296ZM119.252 47.372L118.82 46.796H122.072L121.64 47.372L120.344 42.224L121.052 42.776H119.84L120.536 42.224L119.252 47.372ZM124.788 50V41.636H126.012L125.964 45.884V48.176L129.06 41.636H130.812V50H129.588L129.636 46.148V42.932L126.3 50H124.788ZM127.776 41.324C127.168 41.324 126.696 41.18 126.36 40.892C126.032 40.604 125.852 40.144 125.82 39.512L126.636 39.476C126.676 39.764 126.78 39.98 126.948 40.124C127.116 40.268 127.392 40.34 127.776 40.34C128.2 40.34 128.496 40.268 128.664 40.124C128.832 39.98 128.936 39.764 128.976 39.476L129.696 39.512C129.68 39.936 129.592 40.284 129.432 40.556C129.272 40.82 129.052 41.016 128.772 41.144C128.5 41.264 128.168 41.324 127.776 41.324ZM133.167 50V41.636H134.439L134.403 45.608L133.839 45.188H138.267L137.703 45.608L137.667 41.636H138.939V50H137.667L137.703 45.872L138.267 46.292H133.839L134.403 45.872L134.439 50H133.167ZM140.58 46.604V45.536H143.436V46.604H140.58ZM145.037 50L145.325 41.636H147.065L148.805 46.88H148.889L150.653 41.636H152.393L152.681 50H151.421L151.373 42.968H151.289L149.573 48.104H148.133L146.429 42.968H146.345L146.297 50H145.037ZM153.8 50L156.08 41.636H157.808L160.088 50H158.792L158.144 47.444L158.816 47.888H155.096L155.744 47.444L155.108 50H153.8ZM155.756 47.372L155.324 46.796H158.576L158.144 47.372L156.848 42.224L157.556 42.776H156.344L157.04 42.224L155.756 47.372ZM161.292 50L161.34 46.112L161.292 41.636C161.292 41.636 161.38 41.628 161.556 41.612C161.74 41.596 161.976 41.576 162.264 41.552C162.552 41.528 162.868 41.508 163.212 41.492C163.556 41.476 163.888 41.468 164.208 41.468C164.968 41.468 165.556 41.708 165.972 42.188C166.396 42.66 166.608 43.372 166.608 44.324C166.608 44.916 166.532 45.408 166.38 45.8C166.228 46.184 166.024 46.484 165.768 46.7C165.52 46.916 165.236 47.072 164.916 47.168C164.604 47.256 164.284 47.3 163.956 47.3C163.692 47.3 163.42 47.292 163.14 47.276C162.86 47.252 162.668 47.24 162.564 47.24V50H161.292ZM164.016 46.256C164.256 46.256 164.448 46.24 164.592 46.208C164.744 46.176 164.864 46.12 164.952 46.04C165.072 45.92 165.152 45.708 165.192 45.404C165.24 45.1 165.264 44.7 165.264 44.204C165.264 43.804 165.244 43.5 165.204 43.292C165.172 43.076 165.128 42.924 165.072 42.836C165.016 42.74 164.96 42.676 164.904 42.644C164.832 42.588 164.712 42.544 164.544 42.512C164.376 42.472 164.176 42.452 163.944 42.452C163.672 42.452 163.412 42.464 163.164 42.488C162.916 42.512 162.716 42.536 162.564 42.56V46.124C162.644 46.132 162.824 46.156 163.104 46.196C163.392 46.236 163.696 46.256 164.016 46.256ZM173.037 50L169.713 45.668L172.797 41.636H174.333L171.153 45.596V45.668L174.645 50H173.037ZM168.405 50L168.441 45.752L168.405 41.636H169.689V50H168.405ZM175.636 50V41.636H180.028V42.74L176.344 42.692L176.932 42.128L176.836 45.68L176.284 45.212H179.728V46.28H176.284L176.836 45.788L176.932 49.496L176.344 48.92L180.028 48.896V50H175.636ZM183.044 50L183.068 42.704L180.728 42.74V41.636H186.644V42.74L184.28 42.704L184.304 50H183.044Z" fill="#63A60E"/>
<path opacity="0.2" d="M69.6482 59.0669C69.6482 58.5552 58.174 58.1338 44.0366 58.1338C29.8993 58.1338 18.425 58.5552 18.425 59.0669C18.425 59.5786 29.8993 60 44.0366 60C58.2069 60 69.6482 59.5786 69.6482 59.0669Z" fill="#5D5D5D"/>
<path d="M44.3985 11.8098C55.544 11.8098 64.5853 20.0873 64.5853 30.2913V48.7727H44.3985C33.253 48.7727 24.2117 40.4952 24.2117 30.2913V11.8098H44.3985Z" fill="#63A60E"/>
<path opacity="0.3" d="M61.692 20.7796C60.0153 22.5555 58.9961 24.8732 58.9961 27.4016C58.9961 31.1641 61.2318 34.445 64.5524 36.2209V30.2912C64.5524 26.8297 63.5332 23.5789 61.692 20.7796Z" fill="#63A60E"/>
<path d="M53.7685 13.9468C50.6122 15.6023 48.5081 18.7027 48.5081 22.2846C48.5081 27.5822 53.2095 31.8865 58.996 31.8865C61.0344 31.8865 62.9413 31.3447 64.5523 30.4116V30.2912C64.5523 23.1876 60.1796 17.017 53.7685 13.9468Z" fill="#63A60E"/>
<path opacity="0.5" d="M37.9216 15.3909C32.7269 15.3909 27.9597 17.0464 24.2117 19.8457V30.3205C24.2117 40.5245 33.253 48.802 44.3985 48.802H54.0645C57.5824 45.2502 59.7194 40.5546 59.7194 35.3773C59.7194 24.3306 49.9548 15.3909 37.9216 15.3909Z" fill="#E0EDCF"/>
<path d="M64.5524 48.7426L44.3985 48.7727C33.253 48.7727 24.2117 40.4951 24.2117 30.2912V11.8398L64.5524 48.7426Z" fill="#63A60E"/>
<path opacity="0.3" d="M27.335 18.4317C27.335 32.4584 39.7627 43.8061 55.0507 43.8061C56.3658 43.8061 57.648 43.7158 58.8974 43.5653L27.598 14.9401C27.4336 16.0839 27.335 17.2578 27.335 18.4317Z" fill="#63A60E"/>
<path opacity="0.3" d="M64.5523 48.7727L24.376 11.9904C29.1103 18.4619 34.568 25.0237 40.1243 30.4417C44.4641 34.6557 56.9905 44.077 64.5523 48.7727Z" fill="#63A60E"/>
<path opacity="0.3" d="M37.3956 23.8799L24.2117 11.8398V30.3213C24.2117 38.4784 29.9981 45.4014 37.9874 47.8396C34.5681 44.679 32.4639 40.3446 32.4639 35.5888C32.4639 31.0738 34.3379 26.9802 37.3956 23.8799Z" fill="#63A60E"/>
<path opacity="0.3" d="M55.3467 40.3447C51.9274 44.1674 46.7328 46.6356 40.9135 46.6356C37.0339 46.6356 33.4174 45.552 30.4255 43.6858C34.0421 46.8463 38.9408 48.8028 44.3656 48.8028H64.5524V48.7727L55.3467 40.3447Z" fill="#63A60E"/>
<path opacity="0.3" d="M25.3953 22.8866C25.3953 19.9067 25.9542 17.0171 27.0063 14.3683L24.2117 11.8398V30.3213C24.2117 40.5252 33.253 48.8028 44.3985 48.8028H64.5853V48.7727L62.5797 46.9366C59.6536 47.8998 56.5303 48.4115 53.2425 48.4115C37.8558 48.3814 25.3953 36.9734 25.3953 22.8866Z" fill="#E0EDCF"/>
<path d="M64.2235 52.3546C65.6372 51.9934 67.1167 52.776 67.4784 54.0703C67.8729 55.3646 67.0181 56.7191 65.5715 57.0502C64.1577 57.4114 62.6782 56.6288 62.3166 55.3345C61.9549 54.0402 62.8097 52.7158 64.2235 52.3546ZM63.6974 50.5185C61.1659 51.1506 59.6535 53.4984 60.3439 55.8161C61.0015 58.1338 63.5988 59.5184 66.1304 58.8863C68.662 58.2542 70.1743 55.8763 69.4839 53.5887C68.8263 51.271 66.229 49.9165 63.6974 50.5185Z" fill="#63A60E"/>
<path opacity="0.5" d="M67.0505 56.1768C66.6888 56.5982 66.1956 56.9294 65.6038 57.0799C64.1901 57.4411 62.7106 56.6584 62.349 55.3641C62.086 54.4009 62.4476 53.4377 63.2367 52.8658C62.8421 52.3541 62.5134 51.7822 62.1846 51.2103C60.6065 52.2337 59.8174 54.0698 60.3434 55.8758C61.001 58.1936 63.5983 59.5782 66.1299 58.9461C67.3135 58.6451 68.2669 57.9829 68.8916 57.1099C68.2669 56.8089 67.6423 56.5079 67.0505 56.1768Z" fill="#63A60E"/>
<path d="M25.1648 52.3546C26.5785 52.0235 28.058 52.8061 28.4196 54.1004C28.7813 55.3947 27.9265 56.7492 26.5127 57.0803C25.099 57.4114 23.6195 56.6288 23.2579 55.3345C22.8962 54.0402 23.751 52.6857 25.1648 52.3546ZM24.6387 50.5185C22.1072 51.1205 20.5948 53.4984 21.2523 55.8161C21.9099 58.1338 24.5072 59.5184 27.0388 58.9164C29.5704 58.3144 31.0827 55.9365 30.458 53.6188C29.7676 51.3011 27.1703 49.9165 24.6387 50.5185Z" fill="#63A60E"/>
<path opacity="0.5" d="M27.9597 56.207C27.598 56.6284 27.1049 56.9595 26.5131 57.0799C25.0993 57.411 23.6198 56.6284 23.2582 55.3341C22.9952 54.3709 23.3897 53.4077 24.1459 52.8358C23.7514 52.3241 23.4226 51.7522 23.1267 51.1803C21.5486 52.1736 20.7266 54.0097 21.2527 55.8157C21.9102 58.1334 24.5075 59.518 27.0391 58.916C28.2227 58.6451 29.209 57.9528 29.8008 57.0799C29.1433 56.8391 28.5515 56.5381 27.9597 56.207Z" fill="#63A60E"/>
<path d="M25.4938 10.5455C24.8691 10.5455 24.3431 10.0639 24.3431 9.49205C24.3431 7.02384 23.5869 5.15763 22.1403 3.92353C19.806 1.90682 16.2881 2.11752 16.2552 2.11752C15.6306 2.17772 15.0716 1.72622 15.0059 1.15432C14.9401 0.582418 15.4333 0.0707164 16.058 0.0105162C16.2552 0.0105162 20.5951 -0.290485 23.6856 2.32822C25.6582 3.98373 26.6445 6.39174 26.6445 9.46194C26.6445 10.0639 26.1514 10.5455 25.4938 10.5455Z" fill="#63A60E"/>
</svg>
